<?xml version="1.0" encoding="utf-8"?>
<!-- Generator: Adobe Illustrator 26.2.1, SVG Export Plug-In . SVG Version: 6.00 Build 0)  -->
<svg version="1.1" id="Layer_1" xmlns="http://www.w3.org/2000/svg" xmlns:xlink="http://www.w3.org/1999/xlink" x="0px" y="0px"
	 width="250px" height="250px" viewBox="0 0 250 250" enable-background="new 0 0 250 250" xml:space="preserve">
<circle fill="#000040" cx="125" cy="125" r="125"/>
<path fill-rule="evenodd" clip-rule="evenodd" fill="#FFFFFF" d="M125,62.1l-8.1,14l4.5,2.6c2.7,1.6,5,3.6,6.9,6
	c1.9,2.5,3.3,5.3,4,8.2c0.8,2.9,1,6.1,0.6,9.1c-0.4,3-1.4,5.9-2.9,8.6c-0.7,1.2-1.5,2.3-2.3,3.3c-0.9,1-1.8,2-2.9,2.9
	c-1.1,0.9-2.2,1.7-3.3,2.3c-1.2,0.7-2.4,1.3-3.7,1.7l-47.4,17.5L100,87.3l7.9,4.5l-0.2,0.4l-16.8,29l23.9-8.8
	c0.8-0.3,1.5-0.6,2.2-1.1c0.7-0.4,1.4-0.9,2-1.4c0.6-0.5,1.2-1.1,1.7-1.7c0.5-0.6,1-1.3,1.4-2.1c1-1.7,1.6-3.5,1.8-5.3
	c0.2-1.9,0.1-3.8-0.4-5.6c-1-3.5-3.3-6.7-6.7-8.7l0,0l-12.3-7.1l17.8-30.8c0.3-0.5,0.7-0.9,1.1-1.1c0.5-0.3,1-0.4,1.5-0.4
	c0.5,0,1.1,0.1,1.5,0.4c0.4,0.3,0.8,0.6,1.1,1.1c0,0,7.3,12.7,13.3,23.1c2.8,4.9,5.3,9.3,6.7,11.6l-7.8,4.5L125,62.1z"/>
<path fill-rule="evenodd" clip-rule="evenodd" fill="#FFFFFF" d="M98.2,168.8L98.2,168.8l33.5,0l-19.6-16.3c-0.6-0.5-1.3-1-2-1.4
	c-0.7-0.4-1.5-0.8-2.2-1c-0.8-0.3-1.6-0.5-2.4-0.6c-0.8-0.1-1.6-0.2-2.5-0.2c-1.9,0-3.8,0.4-5.5,1.1c-1.7,0.7-3.3,1.8-4.7,3.1
	c-2.6,2.6-4.2,6.2-4.2,10.1v14.3H53.1c-0.6,0-1.1-0.2-1.5-0.4c-0.5-0.3-0.9-0.7-1.1-1.1c-0.3-0.5-0.4-1-0.4-1.5c0-0.5,0.1-1,0.4-1.5
	c0,0,8.7-15,14.9-25.8c2.2-3.8,4.1-7,5.2-8.9l7.8,4.5l-14.9,25.8h16.2v-5.2c0-3.2,0.6-6.2,1.8-9c1.2-2.9,2.9-5.5,5.1-7.6
	c2.2-2.2,4.7-3.9,7.6-5.1c2.8-1.1,5.8-1.8,9-1.8c1.4,0,2.7,0.1,4,0.4c1.3,0.2,2.7,0.6,3.9,1.1c1.3,0.5,2.5,1,3.7,1.7
	c1.2,0.7,2.3,1.4,3.3,2.3l38.9,32.3H97.7v-9.1H98.2z"/>
<path fill-rule="evenodd" clip-rule="evenodd" fill="#FFFFFF" d="M200,174.8c0,0.5-0.1,1.1-0.4,1.5c-0.3,0.5-0.7,0.9-1.1,1.1
	c-0.4,0.3-1,0.4-1.5,0.4c0,0-16.1,0-28.4,0h-11.7v-9.1h29.8l-8.1-14l-4.5,2.6c-2.7,1.6-5.7,2.5-8.6,2.9c-3.1,0.4-6.2,0.2-9.1-0.6
	c-2.9-0.8-5.7-2.2-8.2-4c-2.4-1.8-4.4-4.1-6-6.9c-0.7-1.2-1.2-2.4-1.7-3.7c-0.5-1.3-0.8-2.6-1.1-3.9c-0.2-1.3-0.4-2.7-0.4-4
	c0-1.4,0.1-2.7,0.3-4l8.5-49.8l29.5,51.2l-7.9,4.5l-0.3-0.4l-16.8-29l-4.3,25.1c-0.1,0.8-0.2,1.6-0.2,2.5c0,0.8,0.1,1.7,0.2,2.5
	c0.1,0.8,0.4,1.6,0.6,2.4c0.3,0.8,0.6,1.5,1.1,2.3c1,1.7,2.2,3.1,3.7,4.2c1.5,1.2,3.2,2,5,2.5c3.5,0.9,7.5,0.5,10.9-1.4l0,0
	l12.3-7.1l17.8,30.8C199.9,173.7,200,174.3,200,174.8z"/>
</svg>
