<?xml version="1.0" encoding="utf-8"?>
<!-- Generator: Adobe Illustrator 26.2.1, SVG Export Plug-In . SVG Version: 6.00 Build 0)  -->
<svg version="1.1" id="Layer_1" xmlns="http://www.w3.org/2000/svg" xmlns:xlink="http://www.w3.org/1999/xlink" x="0px" y="0px"
	 width="250px" height="250px" viewBox="0 0 250 250" enable-background="new 0 0 250 250" xml:space="preserve">
<circle fill="#2B2129" cx="125" cy="125" r="125"/>
<g id="logoMark_00000034081593653380181850000008909024520088982675_">
	<a xlink:href="31.6811764705882" >
		<path id="logoMark__x3C_PathItem_x3E__00000039129455286795884960000003886904124401193860_" fill="#CBA68D" d="M74.3,68.3
			c-2.1-0.1-4.3-0.2-6.2,1.3c-0.9,0.8-2.1,2-1.7,3.5c0,0.2,0.1,0.3,0.2,0.5c0,0,0,0.1,0.1,0.1c0.1,0.1,0.1,0.2,0.2,0.3
			c0,0,0.1,0.1,0.1,0.1c0.1,0.1,0.1,0.2,0.2,0.2c0,0,0.1,0.1,0.1,0.1c0.1,0.1,0.2,0.1,0.3,0.2c0,0,0.1,0,0.1,0.1
			c0.1,0,0.2,0.1,0.3,0.1c0.1,0,0.1,0,0.2,0.1c0.1,0,0.2,0.1,0.3,0.1c0.1,0,0.1,0,0.2,0c0.1,0,0.2,0,0.4,0c0.1,0,0.2,0,0.3,0
			c0.1,0,0.2,0,0.3,0c0.1,0,0.1,0,0.2,0c2.2,0,4.5,0,6.6,0c0.6,0,1.3,0,1.9,0c0.2,0,0.4,0,0.6,0c0,0.1,0,0.2,0,0.3
			c0,0.1,0,0.3-0.1,0.4c0,0.1-0.1,0.3-0.1,0.4c0,0.1,0,0.2-0.1,0.4c0,0.1-0.1,0.2-0.1,0.4c0,0.1-0.1,0.2-0.1,0.3
			c0,0.1-0.1,0.2-0.1,0.3c0,0.1-0.1,0.2-0.1,0.3c0,0.1-0.1,0.2-0.1,0.3c0,0.1-0.1,0.2-0.1,0.3c0,0.1-0.1,0.2-0.2,0.3
			c0,0.1-0.1,0.2-0.1,0.3c-0.1,0.1-0.1,0.2-0.2,0.3c-0.1,0.1-0.1,0.2-0.2,0.3c-0.1,0.1-0.1,0.2-0.2,0.3c-0.1,0.1-0.1,0.2-0.2,0.2
			c-0.1,0.1-0.1,0.2-0.2,0.3c-0.1,0.1-0.1,0.2-0.2,0.2c-0.1,0.1-0.2,0.2-0.2,0.2c-0.1,0.1-0.1,0.1-0.2,0.2c-0.1,0.1-0.2,0.1-0.3,0.2
			c-0.1,0.1-0.1,0.1-0.2,0.2c-0.1,0.1-0.2,0.1-0.3,0.2c-0.1,0.1-0.1,0.1-0.2,0.2c-0.1,0.1-0.2,0.1-0.3,0.2c-0.1,0-0.2,0.1-0.2,0.1
			c-0.1,0.1-0.2,0.1-0.3,0.2c-0.1,0-0.2,0.1-0.2,0.1c-0.1,0.1-0.3,0.1-0.4,0.2c-0.1,0-0.1,0.1-0.2,0.1c-0.2,0.1-0.4,0.2-0.6,0.2
			c-0.3,0.1-0.6,0.2-0.9,0.3c-0.1,0-0.2,0-0.3,0.1c-0.2,0-0.4,0.1-0.6,0.1c-0.1,0-0.3,0-0.4,0.1c-0.2,0-0.3,0-0.5,0.1
			c-0.2,0-0.3,0-0.5,0c-0.1,0-0.3,0-0.4,0c-0.2,0-0.4,0-0.5,0c-0.1,0-0.2,0-0.4,0c-0.2,0-0.4,0-0.6,0c-0.1,0-0.2,0-0.3,0
			c-0.2,0-0.4,0-0.6,0c-0.1,0-0.2,0-0.3,0c-0.2,0-0.3,0-0.5-0.1c-0.1,0-0.2,0-0.4,0c-4.9-3.9-6.5-9.4-4.4-14.8
			c2.2-5.6,6.9-8.3,13.5-7.9c1.5,0.5,3,1.1,4.3,1.9c0,0,0,0,0,0c0.2,0.1,0.5,0.3,0.7,0.4c0,0,0,0,0,0c0.2,0.1,0.4,0.3,0.6,0.4
			c0,0,0,0,0,0c0.2,0.2,0.4,0.3,0.6,0.5c0,0,0,0,0,0c0.2,0.2,0.4,0.3,0.6,0.5c0,0,0,0,0,0c0.2,0.2,0.4,0.3,0.5,0.5c0,0,0,0,0.1,0.1
			c0.2,0.2,0.3,0.3,0.5,0.5c0,0,0.1,0.1,0.1,0.1c0.1,0.2,0.3,0.3,0.4,0.5c0,0.1,0.1,0.1,0.1,0.2c0.1,0.2,0.2,0.3,0.3,0.5
			c0.1,0.1,0.1,0.2,0.2,0.3c0.1,0.1,0.1,0.3,0.2,0.4c0.1,0.2,0.2,0.3,0.2,0.5c0,0.1,0.1,0.1,0.1,0.2l-9,0
			C75.1,68.3,74.7,68.3,74.3,68.3"/>
	</a>
	<path id="logoMark__x3C_CompoundPathItem_x3E__00000000905623766117902880000011324718797664112298_" fill="#2B2129" d="M69.1,84.2
		c-0.1,0-0.1,0-0.2,0l-0.1,0l-0.1,0l-0.2,0c-0.2,0-0.3,0-0.5,0L65.4,84l-0.1-0.1c-5.1-4.1-6.8-9.9-4.6-15.5
		c2.3-5.9,7.2-8.7,14.1-8.3l0.2,0c1.9,0.6,3.2,1.2,4.4,1.9c0.2,0.1,0.5,0.3,0.7,0.4c0.2,0.1,0.5,0.3,0.7,0.5
		c0.2,0.2,0.4,0.3,0.7,0.5c0.2,0.2,0.4,0.4,0.6,0.5c0.2,0.2,0.4,0.4,0.6,0.6c0.2,0.2,0.4,0.4,0.6,0.6l0.1,0.1
		c0.1,0.2,0.3,0.4,0.4,0.5l0.1,0.1c0.2,0.2,0.3,0.4,0.4,0.6c0.1,0.1,0.1,0.2,0.2,0.3l-0.5,0.4l0.5-0.3c0.1,0.1,0.1,0.2,0.2,0.4
		c0.1,0.2,0.2,0.4,0.3,0.6l0.4,1l-9.9,0c-0.4,0-0.7,0-1.1,0l0,0c-2.1-0.1-4.1-0.2-5.8,1.2c-1.3,1.1-1.7,2-1.5,2.9
		c0,0.1,0.1,0.2,0.1,0.4c0.1,0.2,0.1,0.2,0.2,0.3c0.1,0.1,0.2,0.2,0.2,0.2c0.2,0.1,0.2,0.2,0.3,0.2l0.1,0.1c0.1,0,0.2,0.1,0.2,0.1
		l0,0.6l0.2-0.6c0.1,0,0.2,0.1,0.3,0.1l0.2,0c0.1,0,0.2,0,0.3,0l0.5,0l0.1,0c2.3,0,4.6,0,6.7,0l3.2,0l-0.1,1L79,75.5l0.5,0.1
		l-0.1,0.6l-0.6,0.1l0.6,0.1l-0.1,0.6l-0.6,0l0.6,0.2l-0.2,0.5l-0.6,0l0.6,0.2l-0.2,0.5l-0.6-0.1l0.6,0.2L78.5,79l-0.6-0.1l0.5,0.3
		l-0.1,0.2c0,0.1-0.1,0.2-0.1,0.2l-0.6-0.2l0.5,0.3L78,80c0,0.1-0.1,0.1-0.2,0.2L77.2,80l0.5,0.3l-0.1,0.2c-0.1,0.1-0.1,0.1-0.2,0.2
		l-0.6-0.2l0.5,0.4L77.2,81c-0.1,0.1-0.1,0.1-0.2,0.2l-0.6-0.3l0.4,0.4l-0.2,0.2c-0.1,0.1-0.1,0.1-0.2,0.2L76,81.4l0.4,0.4L76.2,82
		C76.1,82,76,82.1,76,82.1l-0.5-0.4l0.4,0.5l-0.2,0.1c-0.1,0.1-0.2,0.1-0.2,0.2l-0.5-0.4l0.3,0.5l-0.2,0.1c-0.1,0.1-0.2,0.1-0.3,0.2
		l-0.4-0.4l0.3,0.5l-0.2,0.1c-0.1,0.1-0.2,0.1-0.4,0.2l-0.4-0.5l0.3,0.5l-0.1,0.1c-0.2,0.1-0.4,0.2-0.7,0.3c-0.3,0.1-0.6,0.2-1,0.3
		l-0.2,0l-0.2-0.6l0,0.6c-0.2,0-0.4,0.1-0.6,0.1c-0.1,0-0.2,0-0.3,0l-0.3,0c-0.1,0-0.2,0-0.4,0c-0.1,0-0.3,0-0.4,0l-0.6,0
		C69.2,84.2,69.1,84.2,69.1,84.2z M68.7,83l0.1,0c0.1,0,0.3,0,0.4,0l0.5,0c0.1,0,0.2,0,0.3,0c0.1,0,0.2,0,0.3,0l0.6-0.1
		c0.2,0,0.3-0.1,0.5-0.1l0.4-0.1c0.3-0.1,0.6-0.2,0.9-0.2c0.2-0.1,0.4-0.1,0.6-0.2l0.2-0.1c0.2-0.1,0.3-0.1,0.4-0.2l0.3-0.2
		c0.1,0,0.2-0.1,0.2-0.1l2-1.7l1.2-2.1l0.6-2.2l-1.8,0c-2,0-4.4,0-6.6,0l-0.2,0c-0.1,0-0.1,0-0.2,0L69.3,75l0,0.6
		c-0.1,0-0.2,0-0.2,0c-0.1,0-0.3,0-0.4-0.1c-0.1,0-0.2,0-0.3,0c-0.1,0-0.3-0.1-0.4-0.1c-0.1,0-0.2,0-0.2-0.1c-0.1,0-0.2-0.1-0.4-0.2
		c-0.1,0-0.1-0.1-0.2-0.1C67.2,75,67.1,75,67,74.9c-0.1-0.1-0.1-0.1-0.2-0.1c-0.1-0.1-0.2-0.2-0.3-0.3c-0.1-0.1-0.1-0.1-0.1-0.1
		c-0.1-0.1-0.2-0.2-0.2-0.4c0-0.1-0.1-0.1-0.1-0.1c-0.1-0.2-0.2-0.4-0.2-0.5c-0.6-2.1,1.2-3.7,1.9-4.2c2-1.7,4.5-1.6,6.6-1.5l0,0.6
		l0-0.6l0,0c0.3,0,0.7,0,1,0l8,0c0-0.1-0.1-0.1-0.1-0.2l-0.2-0.4c-0.1-0.2-0.2-0.3-0.3-0.4l-0.1-0.2c-0.1-0.2-0.2-0.3-0.4-0.5
		l0.4-0.5l-0.5,0.4c-0.1-0.2-0.3-0.3-0.4-0.5c-0.2-0.2-0.4-0.4-0.6-0.6c-0.2-0.2-0.4-0.4-0.6-0.5c-0.2-0.2-0.4-0.3-0.6-0.5
		c-0.2-0.2-0.4-0.3-0.6-0.4c-0.2-0.1-0.4-0.3-0.7-0.4c-1.1-0.6-2.4-1.2-4.2-1.8c-6.3-0.4-10.8,2.3-12.8,7.6c-2,5.1-0.5,10.3,4.1,14
		l1.9,0.2c0.3,0,0.4,0,0.6,0l0.2,0L68.7,83z"/>
	<a xlink:href="85.5286274509804" >
		<path id="logoMark__x3C_PathItem_x3E__00000152944038477092415880000017230330216349235106_" fill="#2B2129" d="M75.7,68.9
			c0.1,0,0.1,0.1,0.2,0.1c0.1,0,0.1,0.1,0.2,0.1c0.1,0,0.1,0.1,0.2,0.1c0.1,0,0.1,0.1,0.2,0.1c0.1,0,0.1,0.1,0.2,0.1
			c0.1,0.1,0.1,0.1,0.2,0.2c0,0,0,0,0,0c0.5,0.5,1,1.1,1.4,1.7c0,0,0,0,0,0c0.1,0.1,0.1,0.3,0.2,0.4c0,0,0,0,0,0
			c0.1,0.1,0.1,0.3,0.2,0.4c0,0,0,0,0,0c0.1,0.1,0.1,0.3,0.1,0.4c0,0,0,0,0,0c0,0.1,0.1,0.3,0.1,0.4c0,0,0,0,0,0.1
			c0,0.1,0.1,0.3,0.1,0.4c0,0,0,0.1,0,0.1c0,0.1,0,0.2,0,0.4c0,0.1,0,0.1,0,0.2c0,0.1,0,0.2,0,0.3c0,0.1,0,0.1,0,0.2
			c-0.9,0-1.7,0-2.6,0c-0.6,0-1.2,0-1.8,0c-1.6,0-3.2,0-4.8,0c-1.7,0-2.7-0.5-3.1-1.7c-0.4-1.4,0.7-2.5,1.6-3.3
			c0.1-0.1,0.3-0.2,0.4-0.3c0,0,0.1-0.1,0.1-0.1c0.1-0.1,0.3-0.2,0.4-0.2c0,0,0,0,0,0c0.2-0.1,0.3-0.1,0.5-0.2c0,0,0.1,0,0.1,0
			c0.1-0.1,0.3-0.1,0.4-0.1c0,0,0,0,0.1,0c0.2,0,0.3-0.1,0.5-0.1c0,0,0.1,0,0.1,0c0.1,0,0.3,0,0.4-0.1c0,0,0.1,0,0.1,0
			c0.2,0,0.3,0,0.5,0c0,0,0.1,0,0.1,0c0.1,0,0.3,0,0.4,0c0,0,0.1,0,0.1,0c0.3,0,0.5,0,0.8,0c0,0,0,0,0,0c0.3,0,0.5,0,0.8,0
			c0.4,0,0.7,0,1,0c0.1,0,0.1,0.1,0.2,0.1C75.6,68.8,75.6,68.8,75.7,68.9z"/>
	</a>
	<path id="logoMark__x3C_CompoundPathItem_x3E__00000002343129560675547990000018369057538875220104_" fill="#2B2129" d="M69.7,75.4
		c-1.9,0-3.1-0.7-3.5-2.1c-0.6-2,1.2-3.4,1.8-3.9c0.2-0.1,0.3-0.3,0.5-0.4l0.1-0.1c0.2-0.1,0.3-0.2,0.5-0.3c0.2-0.1,0.4-0.2,0.6-0.2
		l0.1-0.1c0.2-0.1,0.3-0.1,0.5-0.1c0.2-0.1,0.4-0.1,0.6-0.1l0.1,0c0.2,0,0.3,0,0.5-0.1c0.3,0,0.4,0,0.6,0l0.1,0c0.2,0,0.3,0,0.5,0
		c0.3,0,0.6,0,0.9,0l0.8,0c0.3,0,0.7,0,1,0l0.2,0l0.3,0.2l-0.3,0.6l0.4-0.5l0.3,0.2L75.9,69l0.4-0.5l0.3,0.2l-0.3,0.5l0.4-0.5
		l0.2,0.2l-0.3,0.5l0.4-0.4l0.1,0.1c0.6,0.6,1.1,1.2,1.5,1.9c0.1,0.1,0.2,0.3,0.2,0.4c0.1,0.2,0.1,0.3,0.2,0.5
		c0.1,0.2,0.1,0.3,0.2,0.5c0.1,0.2,0.1,0.3,0.1,0.5c0.1,0.2,0.1,0.4,0.1,0.5c0,0.2,0.1,0.4,0.1,0.5l0,0.2c0,0.1,0,0.2,0,0.3l0,0.2
		l0,0.6l-5,0c-1.6,0-3.2,0-4.8,0C69.8,75.4,69.8,75.4,69.7,75.4z M70.9,68.6l0.1,0.6c-0.1,0-0.3,0.1-0.4,0.1
		c-0.2,0.1-0.3,0.1-0.4,0.1c-0.3,0.1-0.4,0.2-0.5,0.2c-0.2,0.1-0.3,0.2-0.4,0.2L69.1,70c-0.1,0.1-0.3,0.2-0.4,0.3
		c-1.2,1-1.6,1.8-1.4,2.6c0.2,0.6,0.6,1.3,2.5,1.3c1.6,0,3.2,0,4.8,0l4.2,0l0.2-0.1l-0.6,0.1c0-0.1,0-0.2,0-0.3
		c0-0.2-0.1-0.3-0.1-0.4c0-0.2-0.1-0.3-0.1-0.4c-0.1-0.2-0.1-0.3-0.1-0.4c-0.1-0.1-0.1-0.3-0.2-0.4c-0.1-0.1-0.1-0.3-0.2-0.4
		c-0.3-0.6-0.8-1.1-1.3-1.6l-1.2-1c-0.3,0-0.6,0-0.9,0l-0.8,0c-0.3,0-0.5,0-0.8,0c-0.2,0-0.4,0-0.5,0l-0.2-0.6l0,0.6
		c-0.2,0-0.3,0-0.5,0c-0.2,0-0.3,0-0.5,0.1L70.9,68.6z"/>
	<a xlink:href="40.0454901960784" >
		<path id="logoMark__x3C_PathItem_x3E__00000022522718218699509120000001668317809071113130_" fill="#BB9168" d="M80.9,86.1
			c-3.5,0.1-7.2,0.2-10.7-0.5c-1.5-0.3-3-0.7-4.2-1.8c0.1,0,0.1,0,0.2,0c0.2,0,0.3,0,0.5,0c0.1,0,0.2,0,0.4,0c0.2,0,0.3,0,0.5,0
			c0.1,0,0.2,0,0.4,0c0.2,0,0.3,0,0.5,0c0.1,0,0.2,0,0.4,0c0,0,0.1,0,0.1,0c0.1,0,0.2,0,0.2,0c0.2,0,0.4,0,0.6,0c0.1,0,0.2,0,0.4,0
			c0.2,0,0.4,0,0.6-0.1c0.1,0,0.2,0,0.4,0c0.2,0,0.4-0.1,0.7-0.1c0.1,0,0.2,0,0.3-0.1c0.3-0.1,0.7-0.2,1-0.3
			c0.2-0.1,0.5-0.2,0.7-0.2c3.2-1.3,5.1-3.9,5.6-8h0l0-0.1l0-0.1l0,0c0-0.1,0-0.3,0-0.4c0-0.1,0-0.1,0-0.2c0-0.1,0-0.2,0-0.4
			c0-0.1,0-0.1,0-0.2c0-0.1,0-0.2-0.1-0.3c0-0.1,0-0.1-0.1-0.2c0-0.1,0-0.2-0.1-0.3c0-0.1,0-0.1-0.1-0.2c0-0.1-0.1-0.2-0.1-0.3
			c0-0.1-0.1-0.1-0.1-0.2c0-0.1-0.1-0.2-0.1-0.2c0-0.1-0.1-0.1-0.1-0.2c0-0.1-0.1-0.2-0.1-0.2c0-0.1-0.1-0.1-0.1-0.2
			c0-0.1-0.1-0.1-0.1-0.2c0-0.1-0.1-0.1-0.1-0.2c0-0.1-0.1-0.1-0.1-0.2c0-0.1-0.1-0.1-0.1-0.2c-0.1-0.1-0.1-0.1-0.2-0.2
			c0-0.1-0.1-0.1-0.1-0.2c-0.1-0.1-0.1-0.1-0.2-0.2c0-0.1-0.1-0.1-0.2-0.2c-0.1-0.1-0.1-0.1-0.2-0.2c-0.1-0.1-0.1-0.1-0.2-0.2
			c-0.1-0.1-0.1-0.1-0.2-0.2c-0.1,0-0.1-0.1-0.2-0.1c-0.1-0.1-0.1-0.1-0.2-0.2c-0.1,0-0.1-0.1-0.2-0.1c-0.1-0.1-0.1-0.1-0.2-0.2
			c-0.1,0-0.1-0.1-0.2-0.1c0,0,0,0,0,0l8.7,0c0.1,0.1,0.1,0.2,0.2,0.3c0.1,0.1,0.1,0.2,0.2,0.3c0.1,0.1,0.1,0.3,0.2,0.4
			c0.1,0.1,0.1,0.2,0.2,0.3c0.1,0.1,0.1,0.3,0.1,0.4c0,0.1,0.1,0.2,0.1,0.3c0,0.1,0.1,0.3,0.1,0.4c0,0.1,0.1,0.2,0.1,0.3
			c0,0.1,0.1,0.3,0.1,0.4c0,0.1,0,0.2,0.1,0.3c0,0.1,0,0.3,0.1,0.4c0,0.1,0,0.2,0,0.3c0,0.2,0,0.3,0,0.5c0,0.1,0,0.1,0,0.2
			c0,0.2,0,0.5,0,0.7c0,2.8,0,5.7,0,8.5c0,1.1,0,2.2,0,3.4C84.3,86,82.6,86.1,80.9,86.1z"/>
	</a>
	<path id="logoMark__x3C_CompoundPathItem_x3E__00000169520095221127301800000009031435907106096319_" fill="#2B2129" d="M77.3,86.8
		c-2.4,0-4.9-0.1-7.3-0.6c-1.5-0.3-3.2-0.8-4.5-2l-1.3-1.2l1.8,0.2l0.1,0.4l0-0.1l0-0.4l2.5,0.2l0.1,0.6l0-0.6l0.2,0
		c0.2,0,0.4,0,0.6,0l0.4,0c0.2,0,0.4,0,0.6-0.1l0.4,0c0.2,0,0.4-0.1,0.6-0.1l0.3-0.1c0.3-0.1,0.6-0.2,0.9-0.3
		c0.2-0.1,0.4-0.1,0.6-0.2c3-1.2,4.7-3.7,5.2-7.5l0-0.1l0-0.1c0-0.1,0-0.3,0-0.4l0.6-0.2l-0.6,0c0-0.1,0-0.2,0-0.3l-0.4-1.5
		l-0.9-1.5l-1.9-1.8L74.1,68l1.7,0l9,0l0.2,0.3c0.1,0.1,0.1,0.2,0.2,0.3l0.1,0.2c0.1,0.1,0.1,0.2,0.1,0.2c0.1,0.1,0.1,0.2,0.2,0.3
		l0.1,0.2c0,0.1,0.1,0.2,0.1,0.3c0,0.1,0.1,0.2,0.1,0.3l0.1,0.2c0,0.1,0.1,0.2,0.1,0.2c0,0.1,0.1,0.2,0.1,0.3l0.1,0.2
		c0,0.1,0,0.2,0.1,0.2c0,0.1,0,0.2,0.1,0.3l0.1,0.4c0,0.1,0,0.3,0,0.4l-0.6,0.3l0.6-0.1l0,0.2c0,0.2,0,0.3,0,0.5l0,0.2
		c0,0.2,0,0.5,0,0.7c0,2.8,0,5.7,0,8.4l0,4l-0.6,0c-1.7,0-3.4,0-5.1,0h0l0-0.6l0,0.6C79.7,86.7,78.5,86.8,77.3,86.8z M80.9,85.5
		l0,0.6L80.9,85.5c1.5,0,3-0.1,4.6-0.1l0-2.8c0-2.8,0-5.7,0-8.5c0-0.2,0-0.4,0-0.7l0.6-0.2l-0.6,0c0-0.2,0-0.3,0-0.5l0-0.3
		c0-0.2,0-0.3,0-0.4l-0.1-0.3c0-0.2,0-0.3-0.1-0.4l-0.1-0.3c0-0.2-0.1-0.3-0.1-0.4l-0.1-0.3c-0.1-0.2-0.1-0.3-0.1-0.4
		c0-0.1-0.1-0.1-0.1-0.2l-0.1-0.1c-0.1-0.2-0.1-0.3-0.2-0.4c0-0.1-0.1-0.1-0.1-0.2l-0.1-0.1c0,0,0,0,0-0.1l-6.8,0l1.3,1.6l0.7,1.4
		c0,0.1,0.1,0.2,0.1,0.3l0.1,0.2c0,0.1,0,0.2,0.1,0.3l0.1,0.3c0,0.1,0,0.2,0.1,0.3l0,0.3c0,0.1,0,0.2,0,0.4l0,0.1l0.1,0L79.9,75
		l0,0.1l0,0.6h-0.1c-0.7,4-2.6,6.6-5.9,8c-0.2,0.1-0.5,0.2-0.7,0.3c-0.3,0.1-0.7,0.2-1,0.3l-0.2,0c-0.3,0.1-0.6,0.1-0.8,0.1l-0.4,0
		c-0.2,0-0.4,0.1-0.7,0.1l-0.4,0c-0.2,0-0.4,0-0.7,0l-0.2,0l-0.3,0c0.6,0.2,1.2,0.4,1.8,0.5C73.8,85.7,77.4,85.6,80.9,85.5z"/>
	<a xlink:href="16.8117647058824" >
		<path id="logoMark__x3C_PathItem_x3E__00000102531534774305721800000001678618270636708010_" fill="#E5D1B8" d="M105.4,189.1
			c0,0.1-0.1,0.1-0.1,0.2c0,0.1-0.1,0.1-0.1,0.2h-5.5c-0.8,0-1.5-0.2-2.2-0.4l-0.2-0.1c-6.9-1.7-11.2-7.4-11.1-15
			c0.2-21.2,0.1-42.8,0.1-63.7c0-7.9,0-15.9,0-23.8h0l0-0.1c0-1.2,0-2.3,0-3.5c0-2.8,0-5.6,0-8.5c0-1.6-0.2-3.5-1.1-5.1
			c-0.1-0.2-0.3-0.5-0.4-0.7c-0.1-0.3-0.2-0.5-0.3-0.8c0-0.1-0.1-0.2-0.1-0.3c-0.1-0.2-0.2-0.3-0.3-0.5c-0.1-0.1-0.1-0.2-0.2-0.3
			c-0.1-0.1-0.2-0.3-0.3-0.4c-0.1-0.1-0.1-0.2-0.2-0.3c-0.1-0.1-0.2-0.3-0.3-0.4c-0.1-0.1-0.2-0.2-0.2-0.3c-0.1-0.1-0.2-0.2-0.3-0.3
			c-0.1-0.1-0.2-0.2-0.2-0.3c-0.1-0.1-0.2-0.2-0.3-0.3c-0.1-0.1-0.2-0.2-0.3-0.2c-0.1-0.1-0.2-0.2-0.3-0.3c-0.1-0.1-0.2-0.2-0.3-0.2
			c-0.1-0.1-0.2-0.2-0.3-0.3c-0.1-0.1-0.2-0.1-0.3-0.2c-0.1-0.1-0.2-0.2-0.3-0.2c-0.1-0.1-0.2-0.1-0.3-0.2c-0.1-0.1-0.2-0.1-0.3-0.2
			c-0.1-0.1-0.2-0.1-0.3-0.2c-0.1-0.1-0.2-0.1-0.4-0.2c-0.1-0.1-0.2-0.1-0.3-0.2c-0.1-0.1-0.2-0.1-0.4-0.2c-0.1-0.1-0.2-0.1-0.3-0.2
			c-0.1-0.1-0.2-0.1-0.4-0.2c-0.1-0.1-0.2-0.1-0.4-0.2c-0.1,0-0.2-0.1-0.3-0.1c-0.1-0.1-0.3-0.1-0.4-0.2c-0.1,0-0.2-0.1-0.3-0.1
			c-0.1-0.1-0.3-0.1-0.4-0.2c0,0,0,0,0,0c0.1,0,0.2,0,0.2,0c0.7,0,1.3-0.1,2-0.1c8,0,16.1,0,24.1,0c19.5,0,39.6,0,59.4-0.1
			c0,0,0.1,0,0.1,0c3.7,0,7.3,1.5,10,4.3c2.8,2.8,4.4,6.6,4.3,10.4c-0.2,21.5-0.1,43.3-0.1,64.4c0,8,0,15.9,0,23.9
			c-0.4,0-0.7,0-1.1,0c-0.8,0-1.7,0-2.5,0c-19.3,0-38.6,0-57.9,0l-7.7,0c-0.1,0-0.2,0-0.3,0c-0.2,0-0.5,0-0.7,0
			c-4.3-0.6-8.2,0.9-10.6,4c-0.1,0.1-0.1,0.1-0.2,0.2c-0.3,0.4-0.5,0.7-0.7,1.1c-0.2,0.4-0.4,0.8-0.6,1.2c-2.1,5-0.9,10.2,3.3,13.7
			l0.3,0.3h0l0,0l0,0l0,0l0.9,0.2l-0.6,0c1.1,1.1,2.7,1.8,4.6,2c0.4,0,0.9,0.1,1.4,0.1c0.2,0,0.3,0,0.5,0c0.3,0,0.6,0,0.9,0
			c0,0,0,0,0.1,0c0.9,0,1.8,0,2.6,0c0.1,0,0.2,0,0.2,0c0.6,0,1.2,0,1.8,0c0,0,0,0,0,0c-0.1,0.1-0.2,0.2-0.3,0.3c0,0,0,0-0.1,0
			c-0.1,0.1-0.2,0.2-0.4,0.2c0,0-0.1,0-0.1,0c-0.1,0.1-0.3,0.1-0.4,0.2c0,0-0.1,0-0.1,0c-0.1,0.1-0.3,0.1-0.4,0.2c0,0,0,0,0,0
			c-0.2,0.1-0.3,0.1-0.5,0.2c-0.1,0-0.1,0.1-0.2,0.1c0,0-0.1,0-0.1,0.1c-0.1,0-0.1,0.1-0.2,0.1c0,0-0.1,0.1-0.1,0.1
			c-0.1,0-0.1,0.1-0.2,0.1c0,0-0.1,0.1-0.1,0.1c-0.1,0-0.1,0.1-0.2,0.1c0,0-0.1,0.1-0.1,0.1c0,0-0.1,0.1-0.1,0.1
			c0,0-0.1,0.1-0.1,0.1C105.5,189,105.4,189,105.4,189.1z"/>
	</a>
	<path id="logoMark__x3C_CompoundPathItem_x3E__00000059295134663470547530000016076541176620969602_" fill="#2B2129" d="M105.2,190
		h-5.5c-0.8,0-1.6-0.2-2.4-0.4l-0.2-0.1c-7.2-1.7-11.6-7.7-11.5-15.6c0.2-21.2,0.1-42.8,0.1-63.6c0-8,0-15.9,0-23.8l0-3.6
		c0-2.8,0-5.7,0-8.5c0-1.5-0.2-3.3-1-4.9c-0.1-0.2-0.3-0.4-0.4-0.7l-0.1-0.1c-0.1-0.3-0.2-0.5-0.3-0.8l-0.1-0.2
		c-0.1-0.2-0.2-0.3-0.3-0.5L83.2,67c-0.1-0.2-0.2-0.3-0.3-0.4l-0.2-0.3c-0.1-0.1-0.2-0.2-0.2-0.3l-0.2-0.2c-0.2-0.2-0.2-0.3-0.3-0.4
		l-0.2-0.2c-0.1-0.1-0.2-0.2-0.3-0.3l-0.2-0.2c-0.1-0.1-0.2-0.2-0.3-0.3l-0.3-0.2c-0.1-0.1-0.2-0.2-0.3-0.2l-2.2-1.4l-2.8-1.2
		l-2.7-1l3.1-0.2c1.5-0.1,3-0.1,4.4-0.1c7.2,0,14.4,0,21.7,0l0.4,0c19.3,0,39.3,0,59-0.1c4,0,7.7,1.6,10.5,4.5
		c2.9,2.9,4.5,6.9,4.5,10.8c-0.2,21.4-0.1,43.3-0.1,64.4c0,8,0,16,0,23.9l0,0.6l-1.6,0c-0.9,0-1.7,0-2.5,0l-65.7,0l-0.3,0
		c-0.3,0-0.5,0-0.8-0.1c-4.1-0.6-7.7,0.8-10,3.8l-0.1,0.2c-0.2,0.3-0.5,0.7-0.7,1.1c-0.2,0.4-0.4,0.7-0.6,1.1c-2,4.7-0.8,9.7,3.2,13
		l0.3,0.2l5.2,1.5l-3.4-0.1c0.8,0.4,1.7,0.7,2.8,0.8c0.4,0,0.9,0.1,1.3,0.1l0.7,0c0.2,0,0.5,0,0.7,0c0.9,0,1.8,0,2.7,0l0.1,0
		c0.7,0,1.3,0,1.9,0l1.3,0l-0.9,1c-0.1,0.1-0.3,0.3-0.4,0.4c-0.2,0.2-0.3,0.2-0.5,0.3c-0.2,0.1-0.4,0.2-0.5,0.3l-1.2,0.5l-0.4-0.5
		l0.3,0.5l-0.2,0.1l-0.4-0.4l0.3,0.5l-0.2,0.1l-0.5-0.4l0.4,0.5l-0.1,0.1l-0.5-0.3l0.4,0.4l-0.1,0.1l-0.6-0.3l0.5,0.4l-0.4,0.6
		L105.2,190z M85.2,68.2c0.2,0.2,0.3,0.5,0.4,0.7c1,1.8,1.2,3.8,1.2,5.4c0,2.8,0,5.7,0,8.4l0,3.7c0,7.9,0,15.9,0,23.8
		c0,20.9,0.1,42.5-0.1,63.7c-0.1,7.3,4,12.8,10.6,14.4l0.2,0.1c0.7,0.2,1.4,0.4,2.1,0.4h5.2c0,0,0,0,0,0l0,0c0-0.1,0.1-0.1,0.1-0.2
		c0.1-0.1,0.1-0.2,0.2-0.2c0-0.1,0.1-0.1,0.2-0.2l0.2-0.2c0.1,0,0.1-0.1,0.2-0.1l1.1-0.6c0.1-0.1,0.3-0.1,0.4-0.2
		c-0.9,0-1.7,0-2.6,0c-0.3,0-0.5,0-0.8,0l-0.7,0c-0.5,0-0.9-0.1-1.4-0.1c-2.1-0.2-3.7-1-5-2.2l-0.6-0.6c-0.4-0.3-0.8-0.7-1.2-1.1
		l-0.3-0.3l0,0c-3.2-3.6-4-8.4-2.1-13c0.2-0.4,0.4-0.9,0.6-1.3c0.3-0.4,0.5-0.8,0.8-1.2l0.2-0.2c2.6-3.3,6.6-4.8,11.1-4.2
		c0.2,0,0.4,0,0.6,0l0.4,0l65.6,0c0.8,0,1.7,0,2.5,0l0.5,0c0-7.8,0-15.5,0-23.3c0-21.1-0.1-43,0.1-64.4c0-3.6-1.5-7.2-4.2-9.9
		c-2.6-2.7-6-4.1-9.6-4.1c-19.7,0.1-39.7,0.1-59.1,0.1l-0.4,0c-7.8,0-15.7,0-23.5,0l2.1,1.2c0.1,0.1,0.2,0.2,0.4,0.2l0.3,0.2
		c0.1,0.1,0.2,0.2,0.3,0.3l0.3,0.2c0.1,0.1,0.2,0.2,0.3,0.3l0.3,0.3c0.1,0.1,0.2,0.2,0.3,0.3l0.3,0.3c0.1,0.1,0.2,0.2,0.3,0.3
		l0.3,0.3c0.1,0.1,0.2,0.2,0.3,0.4L83.3,66l0.5-0.4l0.2,0.2c0.1,0.1,0.2,0.3,0.2,0.4l-0.4,0.5l0.5-0.3l0.1,0.2
		c0.1,0.2,0.2,0.3,0.3,0.5l-0.5,0.4l0.5-0.3l0.1,0.2C85,67.7,85.1,68,85.2,68.2z"/>
	<a xlink:href="40.0454901960784" >
		<path id="logoMark__x3C_PathItem_x3E__00000050659846723074871740000011804474888299775137_" fill="#BB9168" d="M108.3,177.5
			c0.1-0.4,0.1-0.9,0.1-1.3c0.3-1.5-0.4-2.6-1.2-3.7c-0.1-0.1-0.2-0.3-0.3-0.4c0,0,0-0.1-0.1-0.1c-0.1-0.1-0.1-0.2-0.2-0.3
			c0-0.1-0.1-0.1-0.1-0.2c-0.1-0.1-0.1-0.2-0.2-0.3c0-0.1-0.1-0.1-0.1-0.2c0-0.1-0.1-0.1-0.1-0.2l0,0l6.7-0.1
			c0.1,0.1,0.1,0.3,0.2,0.4c0.1,0.2,0.2,0.4,0.3,0.5c0.1,0.2,0.1,0.3,0.2,0.5c0.1,0.2,0.2,0.3,0.2,0.5c0.1,0.2,0.1,0.3,0.2,0.5
			c0.1,0.2,0.1,0.3,0.2,0.5c0.1,0.2,0.1,0.4,0.1,0.6c0,0.1,0.1,0.3,0.1,0.4c0,0.3,0.1,0.5,0.1,0.8c0,0.1,0,0.2,0,0.2
			c0.2,3.1-0.9,6.3-3.2,8.9c-0.1,0.1-0.2,0.2-0.3,0.3c-0.2,0.2-0.3,0.3-0.5,0.5c-0.3,0.3-0.6,0.5-0.9,0.8c-0.8,0-1.5,0-2.3,0
			c-0.9,0-1.8,0-2.7,0c0,0,0,0-0.1,0c-0.2,0-0.4,0-0.7,0c-0.7,0-1.4-0.1-2.1-0.1c-0.2,0-0.4-0.1-0.6-0.1c-0.1,0-0.1,0-0.2,0
			c-0.1,0-0.3-0.1-0.4-0.1c-0.1,0-0.1,0-0.2-0.1c-0.1,0-0.2-0.1-0.3-0.1c-0.1,0-0.1-0.1-0.2-0.1c-0.1,0-0.2-0.1-0.3-0.1
			c-0.1,0-0.1-0.1-0.2-0.1c-0.1,0-0.2-0.1-0.3-0.1c-0.1,0-0.1-0.1-0.2-0.1c-0.1,0-0.2-0.1-0.3-0.2c-0.1,0-0.1-0.1-0.2-0.1
			c-0.1-0.1-0.2-0.1-0.3-0.2c-0.1,0-0.1-0.1-0.2-0.1c-0.1,0-0.1-0.1-0.2-0.1l-0.2-0.1c0.3,0,0.6,0,0.9,0c1.6,0,3.3,0,4.9-0.7
			c0.4-0.2,0.8-0.4,1.2-0.6C106.7,181.8,107.9,179.9,108.3,177.5z"/>
	</a>
	<path id="logoMark__x3C_CompoundPathItem_x3E__00000100354369340860908800000009154978384093638071_" fill="#2B2129" d="M110,186.9
		l-0.2,0c-0.7,0-1.5,0-2.2,0c-0.9,0-1.8,0-2.7,0l-0.7,0c-0.7,0-1.4-0.1-2.1-0.2c-0.2,0-0.4-0.1-0.7-0.1l-0.1,0
		c-0.2,0-0.4-0.1-0.5-0.1l-0.2,0c-0.2-0.1-0.3-0.1-0.4-0.1l-0.2-0.1c-0.2-0.1-0.3-0.1-0.4-0.1l-0.2-0.1c-0.1-0.1-0.2-0.1-0.3-0.2
		l-0.2-0.1c-0.1-0.1-0.2-0.1-0.3-0.2l-0.2-0.1c-0.1-0.1-0.2-0.1-0.3-0.2l-0.6-0.5l-1.1-1l1.5,0c0.3,0,0.6,0,0.9,0
		c1.5,0,3.1,0,4.6-0.6c0.4-0.2,0.8-0.4,1.1-0.6c1.8-1.1,2.9-2.8,3.2-5.1l0,0c0.1-0.4,0.1-0.8,0.1-1.2c0.3-1.4-0.4-2.3-1.1-3.3
		l-0.4-0.5c-0.1-0.1-0.1-0.2-0.2-0.3l-0.1-0.1c-0.1-0.1-0.1-0.3-0.2-0.4l-0.5-1.2l0.9,0l7.1-0.1l0.2,0.3c0.1,0.1,0.1,0.2,0.2,0.3
		l0.1,0.3c0.1,0.1,0.2,0.3,0.2,0.4c0.1,0.1,0.1,0.2,0.1,0.3l0.1,0.3c0.1,0.1,0.1,0.3,0.2,0.4c0,0.1,0.1,0.3,0.1,0.4l0.1,0.3
		c0,0.1,0.1,0.2,0.1,0.4c0,0.2,0.1,0.3,0.1,0.5l0.1,0.3c0,0.1,0,0.2,0.1,0.3c0,0.3,0.1,0.6,0.1,0.8l0,0.3c0.2,3.3-1,6.6-3.3,9.4
		c-0.1,0.1-0.1,0.2-0.2,0.2l-0.2,0.2c-0.1,0.1-0.3,0.3-0.4,0.4c-0.3,0.3-0.6,0.6-0.9,0.8L110,186.9z M99.9,184.9l0.1,0
		c0.1,0,0.2,0.1,0.3,0.1l0.2,0.1c0.1,0,0.2,0.1,0.3,0.1l0.2,0.1c0.1,0,0.2,0.1,0.4,0.1l0.1,0.6l0.1-0.6c0.2,0,0.4,0.1,0.6,0.1
		c0.7,0.1,1.4,0.1,2,0.1l0.6,0c1,0,1.8,0,2.7,0c0.7,0,1.4,0,2,0c0.2-0.2,0.5-0.4,0.7-0.6c0.1-0.1,0.2-0.3,0.4-0.4l0.2-0.2
		c0.1-0.1,0.1-0.1,0.2-0.2c2.2-2.5,3.3-5.5,3.1-8.5l0-0.2c0-0.2,0-0.5-0.1-0.7c0-0.1,0-0.1,0-0.2l-0.1-0.3c0-0.1-0.1-0.3-0.1-0.4
		c0-0.1-0.1-0.2-0.1-0.3l-0.1-0.3c0-0.1-0.1-0.2-0.1-0.3c0-0.1-0.1-0.2-0.1-0.3l-0.1-0.3c0-0.1-0.1-0.2-0.1-0.3
		c-0.1-0.1-0.1-0.2-0.2-0.4l-0.1-0.2l-5.4,0.1c0,0.1,0.1,0.1,0.1,0.2l-0.4,0.4l0.5-0.3l0.3,0.4c0.8,1.1,1.7,2.3,1.3,4.1
		c0,0.4,0,0.8-0.1,1.3c-0.4,2.6-1.7,4.7-3.8,6c-0.4,0.3-0.9,0.5-1.3,0.7C102.5,184.7,101.2,184.9,99.9,184.9z M106.8,171.5l-0.2,0.2
		l0.3-0.2L106.8,171.5z"/>
	<a xlink:href="85.5286274509804" >
		<path id="logoMark__x3C_PathItem_x3E__00000119103034302787076220000011158050211769229735_" fill="#2B2129" d="M108.1,176l-1.9,0
			c-1.9,0-3.8,0-5.7,0l-0.2,0c-0.9,0-1.8,0-2.1-1.1c-0.3-0.9,0-1.7,0.7-2.5c0.1-0.1,0.3-0.3,0.4-0.4c0,0,0.1-0.1,0.1-0.1
			c0.1-0.1,0.2-0.2,0.3-0.2c0.1,0,0.1-0.1,0.2-0.1c0.1-0.1,0.2-0.2,0.4-0.2c0,0,0.1,0,0.1-0.1c0.2-0.1,0.3-0.2,0.5-0.2
			c0.1,0,0.1,0,0.2-0.1c0.1,0,0.2-0.1,0.3-0.1c0.1,0,0.1,0,0.2-0.1c0.1,0,0.2,0,0.3-0.1c0.1,0,0.1,0,0.2,0c0.2,0,0.3,0,0.5-0.1
			c0.1,0,0.1,0,0.2,0c0.1,0,0.2,0,0.3,0c0.1,0,0.2,0,0.2,0c0.1,0,0.3,0,0.4,0c0.1,0,0.1,0,0.2,0c0.2,0,0.4,0,0.6,0.1c0,0,0,0,0.1,0
			c0.2,0,0.4,0.1,0.6,0.1c0,0,0,0,0,0c0.2,0,0.5,0.1,0.7,0.1c0,0.1,0.1,0.2,0.1,0.3c0,0.1,0.1,0.1,0.1,0.2c0,0.1,0.1,0.2,0.2,0.3
			c0,0.1,0.1,0.1,0.1,0.2c0.1,0.1,0.1,0.2,0.2,0.3c0,0,0.1,0.1,0.1,0.1c0.1,0.1,0.2,0.3,0.3,0.4c0.1,0.1,0.2,0.3,0.3,0.4
			c0,0,0,0.1,0.1,0.1c0.1,0.1,0.1,0.2,0.2,0.3c0,0,0,0.1,0,0.1c0.1,0.1,0.1,0.2,0.2,0.3c0,0,0,0,0,0.1c0.1,0.1,0.1,0.2,0.2,0.3
			c0,0,0,0,0,0.1c0,0.1,0.1,0.2,0.1,0.4c0,0,0,0.1,0,0.1c0,0.1,0.1,0.2,0.1,0.4c0,0,0,0.1,0,0.1c0,0.1,0,0.2,0,0.3
			c0,0.1,0,0.1,0,0.2C108.2,175.9,108.2,175.9,108.1,176z"/>
	</a>
	<path id="logoMark__x3C_CompoundPathItem_x3E__00000080165310137405230940000005352201021215102135_" fill="#2B2129" d="
		M108.6,176.6l-2.4,0c-1.9,0-3.8,0-5.7,0l-0.2,0c-0.9,0-2.2,0-2.7-1.5c-0.3-1.1,0-2.2,0.9-3.1c0.2-0.2,0.3-0.3,0.5-0.5l0.1-0.1
		c0.1-0.1,0.3-0.2,0.4-0.3l0.2-0.1c0.1-0.1,0.3-0.2,0.4-0.2l0.1-0.1c0.2-0.1,0.3-0.2,0.5-0.2l0.1-0.1c0.2-0.1,0.3-0.1,0.4-0.1
		l0.2-0.1c0.1,0,0.2-0.1,0.4-0.1l0.2,0c0.2,0,0.4-0.1,0.5-0.1l0.2,0c0.2,0,0.3,0,0.4,0l0.2,0c0.1,0,0.3,0,0.4,0l0.2,0
		c0.2,0,0.4,0,0.6,0.1c0.3,0,0.5,0.1,0.7,0.1c0.3,0,0.5,0.1,0.7,0.1l0.3,0.1l0.2,0.6c0.1,0.2,0.1,0.2,0.2,0.3l0.1,0.1
		c0.1,0.2,0.2,0.3,0.2,0.4l-0.4,0.5l0.5-0.3l0.6,0.8c0.1,0.2,0.2,0.3,0.3,0.4c0.1,0.2,0.2,0.3,0.3,0.4c0.1,0.2,0.2,0.3,0.2,0.5
		c0.1,0.2,0.1,0.4,0.2,0.5c0.1,0.2,0.1,0.4,0.1,0.5l0,0.1c0,0.1,0,0.3,0,0.4c0,0.1,0,0.1,0,0.2c0,0.1,0,0.2,0,0.3L108.6,176.6z
		 M108.1,175.6L108.1,175.6L108.1,175.6L108.1,175.6z M99.4,171.9l0.4,0.4c-0.1,0.1-0.3,0.2-0.4,0.4c-0.6,0.7-0.8,1.3-0.6,2
		c0.2,0.6,0.5,0.6,1.5,0.6l0.2,0c1.9,0,3.8,0,5.7,0l1.4,0c0,0,0-0.1,0-0.1c0-0.2,0-0.3-0.1-0.4c0-0.2-0.1-0.3-0.1-0.4
		c-0.1-0.2-0.1-0.3-0.2-0.4c-0.1-0.2-0.1-0.3-0.2-0.3l-0.9-1.4c-0.1-0.1-0.1-0.2-0.2-0.3l-0.1-0.1c-0.1-0.2-0.2-0.3-0.2-0.4
		l-0.1-0.2l0,0c-0.1,0-0.3-0.1-0.4-0.1c-0.2,0-0.4-0.1-0.6-0.1c-0.3,0-0.4,0-0.6-0.1l-0.2,0c-0.1,0-0.2,0-0.4,0l-0.2,0
		c-0.1,0-0.2,0-0.3,0l-0.2,0c-0.1,0-0.3,0-0.4,0.1l-0.2,0c-0.1,0-0.2,0-0.3,0.1l-0.2,0.1c-0.1,0-0.2,0.1-0.3,0.1l-0.4-0.5l0.2,0.6
		c-0.1,0.1-0.3,0.1-0.4,0.2c-0.2,0.1-0.3,0.2-0.4,0.2l-0.1,0.1c-0.1,0.1-0.2,0.2-0.3,0.2L99.4,171.9z M105.9,171.1L105.9,171.1
		l0.1-0.1L105.9,171.1z"/>
	<a xlink:href="31.9560784313726" >
		<path id="logoMark__x3C_PathItem_x3E__00000129912526093326770600000004303238209143448200_" fill="#CBA58C" d="M106.1,170.6
			c-2.5-0.5-5.2-0.7-7.3,1.5C98,173,97.7,174,98,175c0.4,1.3,1.4,1.3,2.4,1.3l0.2,0c1.8,0,3.7,0,5.5,0l2.1,0c0,0.1,0,0.2,0,0.3
			c0,0.1,0,0.2,0,0.3c0,0.1,0,0.2,0,0.3c0,0.1,0,0.2,0,0.3c0,0.1,0,0.2-0.1,0.3c0,0.1,0,0.2-0.1,0.3c0,0.1,0,0.2-0.1,0.3
			c0,0.1,0,0.2-0.1,0.3c0,0.1-0.1,0.2-0.1,0.3c0,0.1-0.1,0.2-0.1,0.3c0,0.1-0.1,0.2-0.1,0.3c0,0.1-0.1,0.2-0.1,0.3
			c0,0.1-0.1,0.2-0.1,0.3c0,0.1-0.1,0.2-0.1,0.2c0,0.1-0.1,0.2-0.1,0.2c0,0.1-0.1,0.2-0.1,0.2c-0.1,0.1-0.1,0.2-0.2,0.2
			c-0.1,0.1-0.1,0.1-0.2,0.2c-0.1,0.1-0.1,0.1-0.2,0.2c-0.1,0.1-0.1,0.1-0.2,0.2c-0.1,0.1-0.1,0.1-0.2,0.2c-0.1,0.1-0.1,0.1-0.2,0.2
			c-0.1,0.1-0.1,0.1-0.2,0.2c-0.1,0.1-0.1,0.1-0.2,0.2c-0.1,0.1-0.2,0.1-0.2,0.2c-0.1,0-0.1,0.1-0.2,0.1c-0.1,0.1-0.2,0.1-0.3,0.2
			c-0.1,0-0.1,0.1-0.2,0.1c-0.1,0.1-0.2,0.1-0.3,0.2c-0.1,0-0.1,0.1-0.2,0.1c-0.2,0.1-0.4,0.2-0.5,0.2c-1.5,0.6-3.2,0.6-4.8,0.6
			c-0.4,0-0.8,0-1.2,0l-0.2-0.1l0.2,0.1c0,0,0,0,0,0l-0.6-0.5l0,0c-4.1-3.4-5.4-8.5-3.3-13.4c0.1-0.3,0.2-0.5,0.4-0.8
			c0-0.1,0.1-0.2,0.1-0.2c0.1-0.2,0.2-0.3,0.3-0.5c0.1-0.1,0.1-0.2,0.2-0.3c0.1-0.1,0.2-0.3,0.3-0.4c0.1-0.1,0.1-0.2,0.2-0.3
			c0.1-0.1,0.2-0.3,0.3-0.4c0.1-0.1,0.1-0.2,0.2-0.2c0.1-0.1,0.2-0.2,0.4-0.4c0.1-0.1,0.2-0.1,0.2-0.2c0.1-0.1,0.3-0.2,0.4-0.4
			c0.1-0.1,0.1-0.1,0.2-0.2c0.2-0.1,0.4-0.3,0.6-0.4c0,0,0.1-0.1,0.1-0.1c0.2-0.2,0.5-0.3,0.7-0.4c0,0,0.1,0,0.1-0.1
			c0.2-0.1,0.4-0.2,0.6-0.3c0.1,0,0.2-0.1,0.2-0.1c0.2-0.1,0.4-0.1,0.5-0.2c0.1,0,0.2-0.1,0.3-0.1c0.2-0.1,0.4-0.1,0.5-0.2
			c0.1,0,0.2-0.1,0.3-0.1c0.2,0,0.4-0.1,0.5-0.1c0.1,0,0.2,0,0.3-0.1c0.2,0,0.4-0.1,0.6-0.1c0.1,0,0.2,0,0.3,0c0.2,0,0.4,0,0.7,0
			c0.1,0,0.2,0,0.2,0c0.2,0,0.4,0,0.7,0c0.1,0,0.2,0,0.3,0c0.3,0,0.6,0.1,1,0.1c0.2,0,0.5,0,0.7,0c0.1,0,0.2,0,0.2,0
			c0,0,0,0.1,0,0.1c0,0,0,0.1,0,0.1c0,0.1,0,0.1,0.1,0.2c0,0,0,0.1,0.1,0.1c0,0,0.1,0.1,0.1,0.1c0,0,0,0.1,0.1,0.1
			c0,0,0.1,0.1,0.1,0.1c0,0,0.1,0.1,0.1,0.1c0,0,0.1,0.1,0.1,0.1c0,0,0.1,0,0.1,0.1c0,0,0.1,0.1,0.2,0.1c0,0,0.1,0,0.1,0.1
			c0.1,0,0.1,0.1,0.2,0.1c0,0,0.1,0,0.1,0c0.1,0,0.2,0.1,0.2,0.1l0.2,0.1c0.3,0.1,0.6,0.3,0.8,0.4c0.1,0,0.2,0.1,0.2,0.2
			c0.2,0.1,0.3,0.2,0.5,0.3c0.1,0.1,0.2,0.1,0.2,0.2c0.2,0.1,0.3,0.2,0.4,0.4c0.1,0.1,0.1,0.1,0.2,0.2c0.1,0.1,0.3,0.3,0.4,0.4
			c0.1,0.1,0.1,0.2,0.2,0.2c0.1,0.1,0.2,0.3,0.4,0.4c0.1,0.1,0.1,0.2,0.2,0.3c0.1,0.2,0.2,0.3,0.3,0.5c0.1,0.1,0.1,0.2,0.2,0.3
			c0.1,0.1,0.2,0.3,0.2,0.5c0.1,0.2,0.1,0.3,0.2,0.5c0,0.1,0.1,0.2,0.1,0.3L106.1,170.6z"/>
	</a>
	<path id="logoMark__x3C_CompoundPathItem_x3E__00000034059121182695774950000008237779449501476747_" fill="#2B2129" d="
		M97.3,184.6l-0.2-0.2l0,0l0,0l0,0l-0.6-0.5c-4.3-3.5-5.6-8.9-3.4-14.1c0.1-0.3,0.3-0.6,0.4-0.8l0.1-0.2c0.2-0.3,0.3-0.4,0.4-0.6
		l0.1-0.2c0.2-0.2,0.3-0.4,0.4-0.5l0.2-0.3c0.1-0.1,0.2-0.3,0.3-0.4l0.2-0.3c0.1-0.1,0.3-0.3,0.4-0.4l0.2-0.2
		c0.1-0.1,0.3-0.3,0.4-0.4l0.2-0.2c0.2-0.1,0.4-0.3,0.6-0.4l0.1-0.1c0.2-0.2,0.5-0.3,0.8-0.5l0.1-0.1c0.2-0.1,0.4-0.2,0.7-0.3
		L99,164c0.3-0.1,0.5-0.2,0.7-0.3l0.2-0.1c0.2-0.1,0.4-0.1,0.6-0.2l0.3-0.1c0.2,0,0.4-0.1,0.6-0.1l0.3-0.1c0.2,0,0.4-0.1,0.6-0.1
		l0.3,0c0.2,0,0.5,0,0.7,0l0.3,0c0.2,0,0.5,0,0.7,0l0.3,0c0.3,0,0.7,0.1,1,0.1c0.2,0,0.5,0,0.7,0l0.7,0l0.3,0.9l0.3,0.3l0.9,0.5
		c0.3,0.1,0.6,0.3,0.9,0.5c0.1,0,0.1,0.1,0.2,0.1l-0.2,0.6l0.3-0.5c0.2,0.1,0.3,0.2,0.5,0.3c0.1,0,0.1,0.1,0.2,0.1l-0.3,0.5l0.4-0.4
		c0.1,0.1,0.3,0.2,0.4,0.3c0.1,0.1,0.1,0.1,0.2,0.2l-0.3,0.5l0.5-0.4c0.1,0.1,0.3,0.2,0.4,0.4c0.1,0.1,0.1,0.1,0.1,0.2l-0.4,0.5
		l0.5-0.4c0.1,0.1,0.2,0.3,0.4,0.4c0,0.1,0.1,0.1,0.1,0.2l-0.4,0.4l0.5-0.3c0.1,0.2,0.2,0.3,0.3,0.5c0.1,0.1,0.1,0.2,0.1,0.3
		l-0.5,0.4l0.6-0.2c0.1,0.1,0.2,0.3,0.2,0.4c0.1,0.1,0.1,0.3,0.2,0.4l-0.4,0.3l0,0l0.5-0.2l0.4,1l-7.8,0.1l-0.1,0
		c-2.7-0.6-4.9-0.6-6.7,1.4c-0.7,0.7-0.9,1.4-0.7,2.2c0.2,0.8,0.7,0.8,1.8,0.8l0.2,0c1.8,0,3.7,0,5.5,0l2.7,0l-0.1,1.5l-0.6,0.1
		l0.6,0.1l-0.1,0.5l-0.6,0l0.6,0.1l-0.1,0.5l-0.6,0l0.6,0.1l-0.1,0.5l-0.6,0l0.6,0.2l-0.2,0.4l-0.6-0.1l0.6,0.2l-0.2,0.4l-0.6-0.1
		l0.5,0.3l-0.2,0.4l-0.6-0.2l0.5,0.3l-0.2,0.4l-0.6-0.2l0.5,0.3l-0.3,0.3l-0.6-0.3l0.5,0.4l-0.3,0.3l-0.5-0.3l0.4,0.4l-0.3,0.3
		l-0.5-0.3l0.4,0.4l-0.1,0.1c-0.1,0.1-0.1,0.1-0.2,0.1l-0.5-0.4l0.4,0.5l-0.2,0.1c-0.1,0.1-0.2,0.1-0.2,0.1l-0.5-0.4l0.3,0.5
		l-0.1,0.1c-0.1,0.1-0.2,0.1-0.3,0.2l-0.4-0.5l0.3,0.5l-0.1,0.1c-0.2,0.1-0.4,0.2-0.6,0.3c-2.1,0.9-4.3,0.6-6.2,0.7L97.3,184.6z
		 M97.5,165.5l0.3,0.5c-0.2,0.1-0.4,0.2-0.5,0.4l-0.1,0.1c-0.2,0.2-0.4,0.3-0.5,0.4l-0.2,0.2c-0.2,0.2-0.3,0.3-0.4,0.4l-0.2,0.2
		c-0.1,0.1-0.2,0.2-0.3,0.4l-0.2,0.3c-0.1,0.1-0.2,0.3-0.3,0.4l-0.2,0.3c-0.1,0.2-0.2,0.3-0.3,0.5l-0.1,0.2
		c-0.1,0.2-0.3,0.5-0.4,0.8c-2,4.6-0.8,9.5,3.1,12.7l0.4,0.4c1.9,0,3.8,0.1,5.5-0.6c0.2-0.1,0.3-0.1,0.5-0.2l0.2-0.1
		c0.1-0.1,0.2-0.1,0.3-0.2l2-1.9l0.9-2l0.3-1.6l-1.4,0c-1.8,0-3.7,0-5.5,0l-0.2,0c-1,0-2.4,0-2.9-1.7c-0.3-1.2,0-2.3,0.9-3.4
		c2.3-2.4,5.2-2.3,7.8-1.7l5.9-0.1c-0.1-0.1-0.1-0.2-0.2-0.3l-0.1-0.2c0-0.1-0.1-0.1-0.1-0.2c-0.1-0.1-0.2-0.3-0.3-0.4l-0.2-0.3
		c-0.1-0.1-0.2-0.3-0.3-0.4l-0.2-0.3c-0.1-0.1-0.2-0.2-0.3-0.3l-0.3-0.2c-0.1-0.1-0.2-0.2-0.3-0.3l-0.3-0.2
		c-0.1-0.1-0.3-0.2-0.4-0.3l-0.3-0.2c-0.2-0.1-0.5-0.3-0.8-0.4l-1.1-0.6c-0.1,0-0.1-0.1-0.2-0.1l-0.1-0.1c-0.1-0.1-0.1-0.1-0.2-0.2
		l-0.1-0.1c-0.1-0.1-0.1-0.1-0.1-0.2l-0.1-0.1c0,0,0-0.1,0-0.1c-0.2,0-0.4,0-0.6,0c-0.3,0-0.6-0.1-0.9-0.1l-0.3,0
		c-0.2,0-0.4,0-0.6,0l-0.2,0c-0.2,0-0.4,0-0.6,0l-0.2,0c-0.3,0-0.5,0.1-0.6,0.1l-0.3,0c-0.2,0-0.4,0.1-0.5,0.1l-0.3,0.1
		c-0.2,0-0.3,0.1-0.5,0.1l-0.3,0.1c-0.2,0.1-0.3,0.1-0.5,0.2l-0.2,0.1c-0.2,0.1-0.4,0.2-0.6,0.3l-0.4-0.5l0.3,0.5
		c-0.2,0.1-0.5,0.3-0.7,0.4L97.5,165.5z"/>
	<a xlink:href="27.8894117647059" >
		<path id="logoMark__x3C_PathItem_x3E__00000091718175184881588600000002172939517310602663_" fill="#D7AF94" d="M189.4,179.2
			c-0.9,6-6,8.9-10.2,10.2h-61.8h-11.7c0,0,0,0,0-0.1c0,0,0.1-0.1,0.1-0.1c0-0.1,0.1-0.1,0.1-0.1c0,0,0.1-0.1,0.1-0.1
			c0,0,0.1-0.1,0.1-0.1c0,0,0.1-0.1,0.1-0.1c0,0,0.1-0.1,0.1-0.1c0,0,0.1-0.1,0.1-0.1c0.1,0,0.1-0.1,0.2-0.1c0,0,0.1-0.1,0.1-0.1
			c0.1,0,0.1-0.1,0.2-0.1c0,0,0.1,0,0.1-0.1c0.1,0,0.1-0.1,0.2-0.1c0,0,0.1,0,0.1,0c0.1,0,0.2-0.1,0.3-0.1c0.1-0.1,0.3-0.1,0.4-0.2
			c0.5-0.2,1-0.5,1.4-0.9c0.1-0.1,0.1-0.2,0.2-0.2c0.3-0.3,0.6-0.5,0.9-0.8c0,0,0,0,0,0c4.1-4,5.2-9.5,2.9-14.1
			c-0.2-0.3-0.3-0.6-0.5-1c-0.8-2-2-3.5-3.6-4.6c-0.4-0.3-0.9-0.5-1.3-0.8l-0.2-0.1c-0.1,0-0.2-0.1-0.2-0.1c0,0,0,0-0.1,0
			c-0.1,0-0.1-0.1-0.2-0.1c0,0-0.1,0-0.1,0c0,0-0.1-0.1-0.1-0.1c0,0-0.1,0-0.1-0.1c0,0-0.1-0.1-0.1-0.1c0,0,0,0-0.1-0.1
			c0,0-0.1-0.1-0.1-0.1c0,0,0-0.1-0.1-0.1c0,0-0.1-0.1-0.1-0.1c0,0,0-0.1-0.1-0.1c0,0,0-0.1-0.1-0.1c0,0,0-0.1,0-0.1c0,0,0,0,0-0.1
			l7.6,0c19.5,0,39,0,58.5,0c0.9,0,1.7,0,2.6,0c0.4,0,0.8,0,1.2,0c6.9,0.3,11.7,4.1,12.7,10.2C189.7,175.7,189.7,177.4,189.4,179.2z
			"/>
	</a>
	<path id="logoMark__x3C_CompoundPathItem_x3E__00000078741274899408681940000005852057507690356364_" fill="#2B2129" d="M179.4,190
		h-74.6l0.5-0.9c0.1-0.1,0.1-0.2,0.2-0.3c0-0.1,0.1-0.1,0.1-0.2c0-0.1,0.1-0.1,0.1-0.1c0.1-0.1,0.1-0.1,0.2-0.2l0.1-0.1
		c0.1,0,0.1-0.1,0.2-0.1l1-0.6l0.8-0.4c0.4-0.2,0.9-0.4,1.2-0.8c0.1-0.1,0.1-0.1,0.2-0.2l0.1-0.1c0.3-0.3,0.6-0.5,0.9-0.8
		c3.9-3.8,5-9.1,2.8-13.5c-0.2-0.3-0.3-0.6-0.5-0.9c-0.8-2-1.9-3.4-3.4-4.4c-0.4-0.3-0.9-0.5-1.3-0.7l-1-0.5c-0.1,0-0.1-0.1-0.2-0.1
		l-0.1-0.1c0,0-0.1-0.1-0.1-0.1l-0.1-0.1c0-0.1-0.1-0.1-0.1-0.2l-0.1-0.1c0-0.1-0.1-0.1-0.1-0.2l0-0.2l-0.1-0.7l0.7-0.1l66.1,0
		c0.8,0,1.7,0,2.5,0l1.2,0c7.3,0.3,12.2,4.3,13.3,10.7c0.3,1.8,0.3,3.6,0,5.4l0,0C189.1,185.5,183.8,188.6,179.4,190L179.4,190z
		 M107.3,188.8h71.9c4-1.3,8.8-4.1,9.7-9.7l0,0c0.3-1.7,0.3-3.4,0-5c-1-5.8-5.6-9.4-12.2-9.7l-1.1,0c-0.9,0-1.7,0-2.6,0l-64.8,0
		l0.4,0.2c0.5,0.2,0.9,0.5,1.4,0.8c1.7,1.2,3,2.8,3.8,4.9c0.2,0.2,0.3,0.6,0.5,0.9c2.4,4.9,1.2,10.7-3.1,14.8
		c-0.3,0.3-0.6,0.6-0.9,0.8c-0.1,0.1-0.1,0.2-0.2,0.2c-0.5,0.5-1.1,0.8-1.6,1.1l-1,0.5l-0.4-0.5L107.3,188.8L107.3,188.8z
		 M107.1,188.8h0.1l-0.4-0.4L107.1,188.8z M106.7,188.8L106.7,188.8l-0.2-0.2L106.7,188.8z"/>
	<a xlink:href="38.0803921568627" >
		<path id="logoMark__x3C_PathItem_x3E__00000036247099731421578700000016401188639705579421_" fill="#C2956D" d="M166.1,120.5
			c-0.5,0.3-1.2,0.5-2.4,0.4c-7.5-0.1-15.2,0-22.6,0c-2.8,0-5.5,0-8.3,0c-2.8,0-5.5,0-8.3,0c-1.8,0-3.6,0-5.5,0
			c-5.5,0-11.1,0-16.6,0c-1.3,0-2.1-0.1-2.6-0.5c-0.5-0.3-0.7-0.9-0.7-1.8c0-0.8,0.2-1.3,0.7-1.6c0.1,0,0.1-0.1,0.2-0.1
			c0.5-0.2,1.2-0.3,2.4-0.3c0,0,0,0,0,0c21.8,0,41.8,0,61.3,0c1.2,0,2,0.1,2.5,0.5c0.5,0.3,0.7,0.8,0.7,1.7
			C166.8,119.7,166.6,120.2,166.1,120.5z"/>
	</a>
	<path id="logoMark__x3C_CompoundPathItem_x3E__00000037661785964325338250000013888173488989132964_" fill="#2B2129" d="
		M102.3,121.6c-1.4,0-2.2-0.2-2.8-0.6c-0.9-0.6-1-1.6-1-2.3c0-1,0.3-1.7,0.9-2.1c0.1-0.1,0.2-0.1,0.3-0.2c0.6-0.3,1.4-0.4,2.6-0.4
		c21.7,0,41.8,0,61.4,0c1.4,0,2.2,0.2,2.8,0.6c0.8,0.6,0.9,1.5,0.9,2.2c0,0.7-0.1,1.6-0.9,2.2l0,0c-0.6,0.4-1.4,0.6-2.8,0.5
		c-7.6-0.1-15.2,0-22.6,0l-8.3,0l-13.8,0c-5.5,0-11.1,0-16.6,0C102.3,121.6,102.3,121.6,102.3,121.6z M102.4,117.3
		c-1.1,0-1.8,0.1-2.1,0.3c0,0-0.1,0-0.1,0.1c-0.2,0.1-0.4,0.4-0.4,1.1c0,0.9,0.2,1.1,0.4,1.3c0.4,0.3,1.1,0.4,2.2,0.4
		c5.5,0,11.1-0.1,16.6,0l13.8,0l8.3,0c7.4,0,15,0,22.6,0c1.1,0,1.7-0.1,2.1-0.3l0,0c0.2-0.1,0.4-0.4,0.4-1.2c0-0.8-0.2-1.1-0.4-1.2
		c-0.3-0.2-1-0.3-2.1-0.3C144.1,117.3,124,117.3,102.4,117.3z"/>
	<a xlink:href="38.0803921568627" >
		<path id="logoMark__x3C_PathItem_x3E__00000070119890989603329980000009143411807037080213_" fill="#C2956D" d="M102.1,140.5
			C102.1,140.5,102.2,140.5,102.1,140.5c20.7,0.1,41.4,0.1,61.6,0c0,0,0,0,0,0c2.5,0,3,0.7,3,2.2c0,0.8-0.2,1.3-0.6,1.6
			c-0.5,0.3-1.2,0.5-2.6,0.5c-7.5-0.1-15.1,0-22.4,0c-5.5,0-11,0-16.4,0c-1.8,0-3.7,0-5.6,0c-5.6,0-11.3,0-16.9,0
			c-1.3,0-2.1-0.1-2.5-0.5c-0.5-0.3-0.7-0.8-0.7-1.7C99.1,141.2,99.6,140.5,102.1,140.5z"/>
	</a>
	<path id="logoMark__x3C_CompoundPathItem_x3E__00000054974197318789198280000017152501495602526399_" fill="#2B2129" d="
		M102.1,145.4c-1.3,0-2.1-0.2-2.7-0.6c-0.8-0.6-0.9-1.5-0.9-2.2c0-2,1-2.8,3.6-2.8h0c20.6,0.1,41.3,0.1,61.6,0
		c2.7,0,3.6,0.7,3.6,2.8c0,1-0.3,1.7-0.9,2.2c-0.6,0.4-1.4,0.6-2.9,0.6c-7.5-0.1-15.1,0-22.4,0c-5.5,0-11,0-16.5,0l-5.6,0
		c-5.6,0-11.3,0-16.9,0C102.2,145.4,102.2,145.4,102.1,145.4z M102.1,140.5v0.6c-2.4,0-2.4,0.6-2.4,1.6c0,0.8,0.2,1,0.4,1.2
		c0.4,0.2,1.1,0.4,2.2,0.3c5.6,0,11.3,0,16.9,0l5.6,0c5.5,0,11,0,16.4,0c7.3,0,14.9,0,22.5,0c1.2,0,1.9-0.1,2.2-0.3
		c0.2-0.1,0.4-0.4,0.4-1.1c0-1.1,0-1.6-2.4-1.6c-20.3,0.1-41,0.1-61.6,0L102.1,140.5z"/>
	<a xlink:href="38.0803921568627" >
		<path id="logoMark__x3C_PathItem_x3E__00000011023559434164574220000011867414199856793776_" fill="#C2956D" d="M102.1,128.6
			C102.1,128.6,102.2,128.6,102.1,128.6c20.6,0.1,41.4,0.1,61.6,0c0,0,0,0,0,0c2.5,0,3,0.7,3,2.2c0,0.8-0.2,1.3-0.6,1.6
			c-0.5,0.3-1.3,0.5-2.6,0.5c-7.6,0-15.2,0-22.7,0c-5.5,0-10.9,0-16.4,0c-7.3,0-14.8,0-22.2,0c-1.3,0-2.1-0.1-2.5-0.4
			c-0.5-0.3-0.7-0.8-0.7-1.7C99.1,129.3,99.6,128.6,102.1,128.6z"/>
	</a>
	<path id="logoMark__x3C_CompoundPathItem_x3E__00000059299580580711792860000008845166327471580084_" fill="#2B2129" d="
		M102.1,133.5c-1.3,0-2.1-0.2-2.7-0.6c-0.6-0.4-0.9-1.1-0.9-2.2c0-2,1-2.8,3.6-2.8h0c20.6,0.1,41.3,0.1,61.6,0
		c2.7,0,3.6,0.7,3.6,2.8c0,1-0.3,1.7-0.9,2.1c-0.6,0.4-1.5,0.6-2.9,0.6c-7.6-0.1-15.3,0-22.7,0c-5.5,0-10.9,0-16.4,0l-0.2,0
		c-7.2,0-14.7,0-22.1,0C102.2,133.5,102.2,133.5,102.1,133.5z M102.1,128.6v0.6c-2.4,0-2.4,0.6-2.4,1.6c0,0.8,0.2,1,0.4,1.1
		c0.4,0.2,1.1,0.4,2.2,0.3c7.4-0.1,14.8,0,22.1,0l0.2,0c5.5,0,10.9,0,16.4,0c7.4,0,15.1,0,22.7,0c1.1,0,1.9-0.1,2.2-0.3
		c0.2-0.1,0.4-0.4,0.4-1.1c0-1,0-1.6-2.4-1.6c-20.3,0.1-41,0.1-61.6,0L102.1,128.6z"/>
	<a xlink:href="38.0803921568627" >
		<path id="logoMark__x3C_PathItem_x3E__00000138539727585372280690000002999711373053127331_" fill="#C2956D" d="M166.2,156.2
			c-0.4,0.3-1.1,0.4-2.1,0.4c-0.1,0-0.3,0-0.5,0c-7.5-0.1-15.1,0-22.5,0c-5.5,0-10.9,0-16.4,0c-7.4,0-15,0-22.5,0
			c-1.3,0-2.1-0.1-2.5-0.4c-0.5-0.3-0.7-0.8-0.6-1.6c0-1.5,0.5-2.2,3-2.2c0,0,0,0,0,0c10.3,0,20.6,0,30.9,0c10.3,0,20.5,0,30.7,0
			c0,0,0,0,0,0c2.5,0,3,0.7,3,2.2C166.8,155.4,166.6,155.9,166.2,156.2z"/>
	</a>
	<path id="logoMark__x3C_CompoundPathItem_x3E__00000000939420427480955330000012584453253724151441_" fill="#2B2129" d="
		M102.1,157.3c-1.3,0-2.2-0.2-2.7-0.6c-0.6-0.4-0.9-1.1-0.9-2.2c0-2,1-2.8,3.6-2.8c10.3,0,20.6,0,30.9,0c10.3,0,20.5,0,30.7,0
		c2.7,0,3.6,0.7,3.7,2.8c0,1-0.3,1.7-0.9,2.1h0c-0.5,0.4-1.3,0.5-2.4,0.6c-0.2,0-0.3,0-0.5,0c-7.4-0.1-15,0-22.3,0
		c-5.6,0-11,0-16.5,0c-7.4,0-15,0-22.4,0C102.2,157.3,102.2,157.3,102.1,157.3z M102.2,153c-2.4,0-2.4,0.6-2.5,1.6
		c0,0.8,0.2,1,0.4,1.1c0.4,0.2,1.1,0.4,2.2,0.3c7.5-0.1,15.1,0,22.4,0c5.5,0,11,0,16.4,0c7.4,0,15,0,22.5,0c0.2,0,0.3,0,0.4,0
		c0.9,0,1.5-0.1,1.8-0.3c0.2-0.1,0.4-0.4,0.4-1.1c0-1,0-1.6-2.4-1.6c-10.2,0-20.5,0-30.8,0C122.7,153,112.4,153,102.2,153z"/>
	<a xlink:href="38.0803921568627" >
		<path id="logoMark__x3C_PathItem_x3E__00000156552611097762475200000013634558404703696806_" fill="#C2956D" d="M166.2,108.6
			c-0.4,0.3-1.1,0.4-2.1,0.4c-0.1,0-0.3,0-0.5,0c-7.5-0.1-15.1,0-22.5,0c-5.5,0-10.9,0-16.4,0c-7.4,0-15,0-22.5,0
			c-1.3,0-2.1-0.1-2.5-0.4c-0.5-0.3-0.7-0.8-0.6-1.6c0-1.5,0.5-2.2,3-2.2c0,0,0,0,0,0c10.3,0,20.6,0,30.9,0c10.3,0,20.5,0,30.7,0
			c0,0,0,0,0,0c2.5,0,3,0.7,3,2.2C166.8,107.8,166.6,108.3,166.2,108.6z"/>
	</a>
	<path id="logoMark__x3C_CompoundPathItem_x3E__00000046313438883685352820000013262074412176843171_" fill="#2B2129" d="
		M102.1,109.7c-1.3,0-2.2-0.2-2.7-0.6c-0.6-0.4-0.9-1.1-0.9-2.2c0-2,1-2.8,3.6-2.8c10.3,0,20.6,0,30.9,0c10.3,0,20.5,0,30.7,0
		c2.7,0,3.6,0.7,3.7,2.8c0,1-0.3,1.7-0.9,2.1l0,0c-0.5,0.4-1.3,0.5-2.4,0.6c-0.2,0-0.3,0-0.5,0c-7.4-0.1-15,0-22.3,0
		c-5.6,0-11,0-16.5,0c-7.4,0-15,0-22.4,0C102.2,109.7,102.2,109.7,102.1,109.7z M102.2,105.4c-2.4,0-2.4,0.6-2.5,1.6
		c0,0.8,0.2,1,0.4,1.1c0.4,0.2,1.1,0.4,2.2,0.3c7.5-0.1,15.1,0,22.4,0c5.5,0,11,0,16.4,0c7.4,0,15,0,22.5,0c0.2,0,0.3,0,0.4,0
		c0.9,0,1.5-0.1,1.8-0.3l0,0c0.2-0.1,0.4-0.4,0.4-1.1c0-1,0-1.6-2.4-1.6c-10.2,0-20.5,0-30.8,0C122.7,105.4,112.4,105.4,102.2,105.4
		z"/>
	<a xlink:href="38.0803921568627" >
		<path id="logoMark__x3C_PathItem_x3E__00000143618639670750927520000016273120597916300686_" fill="#C2956D" d="M166.2,96.7
			c-0.4,0.3-1.1,0.4-2.1,0.4c-0.1,0-0.3,0-0.5,0c-7.5-0.1-15.1,0-22.5,0c-5.5,0-10.9,0-16.4,0c-7.4,0-15,0-22.5,0
			c-1.3,0-2.1-0.1-2.5-0.4c-0.5-0.3-0.7-0.8-0.6-1.6c0-1.5,0.5-2.2,3-2.2c0,0,0,0,0,0c10.3,0,20.6,0,30.9,0c10.3,0,20.5,0,30.7,0
			c0,0,0,0,0,0c2.5,0,3,0.7,3,2.2C166.8,95.9,166.6,96.4,166.2,96.7z"/>
	</a>
	<path id="logoMark__x3C_CompoundPathItem_x3E__00000106828785499454108110000015400700674774427535_" fill="#2B2129" d="
		M102.1,97.8c-1.3,0-2.2-0.2-2.7-0.6c-0.6-0.4-0.9-1.1-0.9-2.2c0-2,1-2.8,3.6-2.8c10.3,0,20.6,0,30.9,0c10.3,0,20.5,0,30.7,0
		c2.7,0,3.6,0.7,3.7,2.8c0,1-0.3,1.7-0.9,2.1l0,0c-0.5,0.4-1.3,0.5-2.4,0.6c-0.2,0-0.3,0-0.5,0c-7.4-0.1-15,0-22.3,0
		c-5.6,0-11,0-16.5,0c-7.4,0-15,0-22.4,0C102.2,97.8,102.2,97.8,102.1,97.8z M102.2,93.5c-2.4,0-2.4,0.6-2.5,1.6
		c0,0.8,0.2,1,0.4,1.1c0.4,0.2,1.1,0.4,2.2,0.3c7.5-0.1,15.1,0,22.4,0c5.5,0,11,0,16.4,0c7.4,0,15,0,22.5,0c0.2,0,0.3,0,0.4,0
		c0.9,0,1.5-0.1,1.8-0.3h0c0.2-0.1,0.4-0.4,0.4-1.1c0-1,0-1.6-2.4-1.6c-10.2,0-20.5,0-30.8,0C122.7,93.6,112.4,93.5,102.2,93.5z"/>
	<a xlink:href="38.0803921568627" >
		<path id="logoMark__x3C_PathItem_x3E__00000106120623135217113390000009995263511714648250_" fill="#C2956D" d="M166.2,84.9
			c-0.4,0.3-1.1,0.4-2.1,0.4c-0.1,0-0.3,0-0.5,0c-7.5-0.1-15.1,0-22.5,0c-5.5,0-10.9,0-16.4,0c-7.4,0-15,0-22.5,0
			c-1.3,0-2.1-0.1-2.5-0.4c-0.5-0.3-0.7-0.8-0.6-1.6c0-1.5,0.5-2.2,3-2.2c0,0,0,0,0,0c10.3,0,20.6,0,30.9,0c10.3,0,20.5,0,30.7,0
			c0,0,0,0,0,0c2.5,0,3,0.7,3,2.2C166.8,84,166.6,84.6,166.2,84.9z"/>
	</a>
	<path id="logoMark__x3C_CompoundPathItem_x3E__00000003800597820367416410000016501218074625833644_" fill="#2B2129" d="
		M102.1,85.9c-1.3,0-2.2-0.2-2.7-0.6c-0.6-0.4-0.9-1.1-0.9-2.2c0-2,1-2.8,3.6-2.8c10.3,0,20.6,0,30.9,0c10.3,0,20.5,0,30.7,0
		c2.7,0,3.6,0.7,3.7,2.8c0,1-0.3,1.7-0.9,2.1l0,0c-0.5,0.4-1.3,0.5-2.4,0.6c-0.2,0-0.3,0-0.5,0c-7.5-0.1-15,0-22.4,0
		c-5.6,0-11,0-16.5,0c-7.4,0-15,0-22.4,0C102.2,85.9,102.2,85.9,102.1,85.9z M102.2,81.6c-2.4,0-2.4,0.6-2.5,1.6
		c0,0.8,0.2,1,0.4,1.1c0.4,0.2,1.1,0.4,2.2,0.3c7.5-0.1,15.1,0,22.4,0c5.5,0,11,0,16.4,0c7.4,0,15,0,22.5,0c0.2,0,0.3,0,0.4,0
		c0.9,0,1.5-0.1,1.8-0.3h0c0.2-0.1,0.4-0.4,0.4-1.1c0-1,0-1.6-2.4-1.6c-10.2,0-20.5,0-30.8,0C122.7,81.7,112.4,81.7,102.2,81.6z"/>
</g>
</svg>
