<?xml version="1.0" encoding="utf-8"?>
<!-- Generator: Adobe Illustrator 26.2.1, SVG Export Plug-In . SVG Version: 6.00 Build 0)  -->
<svg version="1.1" id="Layer_1" xmlns="http://www.w3.org/2000/svg" xmlns:xlink="http://www.w3.org/1999/xlink" x="0px" y="0px"
	 width="24px" height="24px" viewBox="0 0 24 24" enable-background="new 0 0 24 24" xml:space="preserve">
<g>
	<path fill="#009B6C" d="M24,14.5c0,5.2-5.4,9.5-12,9.5c-6.6,0-12-4.2-12-9.5c0-2.1,0.8-4,2.2-5.5c0.2-0.2,0.2-0.4,0-0.6
		C1.5,7.5,1.1,6.3,1.1,5.1C1.1,2.3,3.3,0,6,0c2.7,0,4.9,2.3,4.9,5.1c0,0,0,0,0,0c0.4,0,0.8,0,1.1,0c0.4,0,0.8,0,1.1,0c0,0,0,0,0,0
		c0-2.8,2.2-5,4.9-5.1c2.7,0,4.9,2.3,4.9,5.1c0,1.3-0.4,2.4-1.2,3.3c-0.2,0.2-0.1,0.5,0,0.6C23.2,10.6,24,12.5,24,14.5z"/>
	<path fill="#070707" d="M16.2,19.6c-1.2,0.7-2.7,1.2-4.2,1.2c-1.5,0-3-0.5-4.2-1.2c-2.5-1.5-4.2-4-3.9-4.9c0,0,0-0.1,0-0.1
		C4.3,13.8,6.5,15,12,15c5.5,0,7.7-1.2,8.1-0.3c0,0,0,0.1,0,0.1C20.5,15.7,18.8,18.1,16.2,19.6z"/>
	<ellipse fill="#FFFFFF" cx="6.2" cy="5.3" rx="3" ry="3.1"/>
	<ellipse fill="#FFFFFF" cx="17.8" cy="5.3" rx="3" ry="3.1"/>
	<ellipse fill="#070707" cx="10.8" cy="12" rx="0.7" ry="0.9"/>
	<ellipse fill="#070707" cx="13.2" cy="12" rx="0.7" ry="0.9"/>
	<path fill="#E24D4D" d="M16.2,19.6c-1.2,0.7-2.7,1.2-4.2,1.2c-1.5,0-3-0.5-4.2-1.2c0.7-0.6,2.4-1,4.2-1
		C13.9,18.6,15.5,19,16.2,19.6z"/>
	<path fill="#FFFFFF" d="M20.2,14.8c-0.9,1.2-4.2,2.1-8.2,2.1c-3.9,0-7.2-0.9-8.2-2.1c0,0,0-0.1,0-0.1C4.3,13.8,6.5,15,12,15
		C17.5,15,19.7,13.8,20.2,14.8C20.2,14.7,20.2,14.7,20.2,14.8z"/>
	<ellipse fill="#070707" cx="6.2" cy="5.3" rx="1.4" ry="1.4"/>
	<ellipse fill="#070707" cx="17.8" cy="5.3" rx="1.4" ry="1.4"/>
</g>
</svg>
