<?xml version="1.0" encoding="utf-8"?>
<!-- Generator: Adobe Illustrator 26.2.1, SVG Export Plug-In . SVG Version: 6.00 Build 0)  -->
<svg version="1.1" id="Layer_1" xmlns="http://www.w3.org/2000/svg" xmlns:xlink="http://www.w3.org/1999/xlink" x="0px" y="0px"
	 width="24px" height="24px" viewBox="0 0 24 24" enable-background="new 0 0 24 24" xml:space="preserve">
<path fill-rule="evenodd" clip-rule="evenodd" d="M9.1,13.4c0.8,0,1.4,0.6,1.4,1.4v5.7c0,0.8-0.6,1.4-1.4,1.4H3.4
	C2.6,22,2,21.4,2,20.6v-5.7c0-0.8,0.6-1.4,1.4-1.4H9.1z M20.6,19.1c0.8,0,1.4,0.6,1.4,1.4c0,0.8-0.6,1.4-1.4,1.4h-5.7
	c-0.8,0-1.4-0.6-1.4-1.4c0-0.8,0.6-1.4,1.4-1.4H20.6z M7.7,16.3H4.9v2.9h2.9V16.3z M20.6,13.4c0.8,0,1.4,0.6,1.4,1.4
	c0,0.8-0.6,1.4-1.4,1.4h-5.7c-0.8,0-1.4-0.6-1.4-1.4c0-0.8,0.6-1.4,1.4-1.4H20.6z M9.1,2c0.8,0,1.4,0.6,1.4,1.4v5.7
	c0,0.8-0.6,1.4-1.4,1.4H3.4C2.6,10.6,2,9.9,2,9.1V3.4C2,2.6,2.6,2,3.4,2H9.1z M20.6,7.7c0.8,0,1.4,0.6,1.4,1.4
	c0,0.7-0.6,1.3-1.3,1.4l-0.2,0h-5.7c-0.8,0-1.4-0.6-1.4-1.4c0-0.7,0.6-1.3,1.3-1.4l0.2,0H20.6z M7.7,4.9H4.9v2.9h2.9V4.9z M20.6,2
	C21.4,2,22,2.6,22,3.4s-0.6,1.4-1.4,1.4h-5.7c-0.8,0-1.4-0.6-1.4-1.4S14.1,2,14.9,2H20.6z"/>
</svg>
