<svg width="20" height="20" viewBox="0 0 20 20" fill="none" xmlns="http://www.w3.org/2000/svg"><path d="M5.19993 7.5915H12.3999V3.59138C12.3999 1.82406 13.8326 0.39143 15.5999 0.39143C17.3672 0.39143 18.8 1.82406 18.8 3.59138H17.1999C17.1999 2.70774 16.4835 1.99148 15.5999 1.99148C14.7162 1.99148 14 2.70774 14 3.59138V12.3915H12.3999V9.19155H5.19993V10.7915H3.59988V3.59145C3.59988 1.82413 5.03265 0.391498 6.79998 0.391498C8.5673 0.391498 9.99993 1.82413 9.99993 3.59145H8.39988C8.39988 2.70781 7.68362 1.99154 6.79998 1.99154C5.91633 1.99154 5.19993 2.70781 5.19993 3.59145V7.5915ZM1.49707 14.7342L0.902832 13.2487C3.75352 12.1084 6.88055 12.1084 10.2529 13.2325C13.2806 14.2417 16.0201 14.2417 18.5027 13.2487L19.097 14.7342C16.2463 15.8745 13.1192 15.8745 9.7469 14.7503C6.71916 13.7411 3.9797 13.7411 1.49707 14.7342ZM1.49707 18.734L0.902832 17.2485C3.75352 16.1082 6.88055 16.1082 10.2529 17.2324C13.2806 18.2416 16.0201 18.2416 18.5027 17.2485L19.097 18.734C16.2463 19.8743 13.1192 19.8743 9.7469 18.7502C6.71916 17.7411 3.9797 17.7411 1.49707 18.734Z" fill="currentColor"></path></svg>