<svg width="20" height="20" viewBox="0 0 24 24" fill="none" xmlns="http://www.w3.org/2000/svg"><path d="M12,24C5.4,24,0,18.6,0,12C0,5.4,5.4,0,12,0c6.6,0,12,5.4,12,12C24,18.6,18.6,24,12,24z M12,2.7c-5.1,0-9.3,4.2-9.3,9.3 c0,5.1,4.2,9.3,9.3,9.3c5.1,0,9.3-4.2,9.3-9.3C21.3,6.9,17.1,2.7,12,2.7z" fill="currentColor"></path><path d="M16.9,14.1l-2.8,2.8c-1.2,1.2-3.1,1.2-4.2,0l-2.8-2.8C5.9,13,5.9,11,7.1,9.9l2.8-2.8c1.2-1.2,3.1-1.2,4.2,0l2.8,2.8 C18.1,11,18.1,13,16.9,14.1z M8.5,11.3c-0.4,0.4-0.4,1,0,1.4l2.8,2.8c0.4,0.4,1,0.4,1.4,0l2.8-2.8c0.4-0.4,0.4-1,0-1.4l-2.8-2.8 c-0.4-0.4-1-0.4-1.4,0L8.5,11.3z" fill="currentColor"></path></svg>