<?xml version="1.0" encoding="utf-8"?>
<!-- Generator: Adobe Illustrator 26.2.1, SVG Export Plug-In . SVG Version: 6.00 Build 0)  -->
<svg version="1.1" id="Layer_1" xmlns="http://www.w3.org/2000/svg" xmlns:xlink="http://www.w3.org/1999/xlink" x="0px" y="0px"
	 width="99px" height="24px" viewBox="0 0 99 24" enable-background="new 0 0 99 24" xml:space="preserve">
<g>
	<g>
		<path fill="#FFFFFF" d="M16.3,4.2c0,0.4-0.1,0.7-0.3,1c-0.2,0.3-0.6,0.4-1,0.4c-0.3,0-0.5-0.1-0.8-0.2c-0.2-0.1-0.4-0.3-0.7-0.5
			c-0.3-0.2-0.5-0.4-0.8-0.6C12.6,4.2,12.3,4.1,12,4c-0.3-0.1-0.7-0.1-1.1-0.1c-0.7,0-1.3,0.2-1.7,0.5C8.8,4.6,8.6,5,8.6,5.5
			c0,0.5,0.2,0.9,0.6,1.4c0.5,0.5,1.3,1,2.3,1.5c0.9,0.5,1.6,0.9,2.2,1.4c0.6,0.5,1,1,1.3,1.5c0.3,0.6,0.4,1.2,0.4,1.9
			c0,1-0.2,1.9-0.7,2.6c-0.5,0.8-1.1,1.4-1.9,1.8c-0.8,0.4-1.7,0.6-2.8,0.6c-0.9,0-1.7-0.1-2.5-0.4c-0.8-0.3-1.5-0.6-2-1
			c-0.5-0.5-0.8-1-0.8-1.5c0-0.4,0.1-0.7,0.4-0.9C5.4,14.2,5.7,14,6,14c0.3,0,0.5,0.1,0.7,0.2c0.2,0.1,0.4,0.3,0.7,0.5
			c0.3,0.2,0.6,0.4,0.8,0.6c0.2,0.1,0.6,0.3,0.9,0.4c0.4,0.1,0.8,0.2,1.4,0.2c0.5,0,0.9-0.1,1.2-0.3c0.4-0.2,0.6-0.5,0.8-0.9
			c0.2-0.4,0.3-0.7,0.3-1.2c0-0.4-0.1-0.7-0.3-1c-0.2-0.3-0.5-0.6-0.9-0.9c-0.4-0.3-1.1-0.7-1.8-1.1C8.9,10,8.2,9.6,7.7,9.1
			c-0.6-0.5-1-1-1.3-1.5C6.2,7.1,6,6.5,6,5.9C6,5,6.3,4.2,6.7,3.5c0.5-0.7,1.1-1.2,1.9-1.6c0.8-0.4,1.7-0.5,2.6-0.5
			c0.7,0,1.5,0.1,2.3,0.4c0.8,0.3,1.4,0.6,2,1C16.1,3.3,16.3,3.7,16.3,4.2z"/>
	</g>
	<g>
		<path fill="#FFFFFF" d="M27.6,7c0,0.1,0,0.3-0.2,1l0,0c-0.1,0.3-0.2,0.6-0.2,0.9c-0.2,0.9-0.4,2.1-0.6,3.5
			c-0.2,1.4-0.3,2.3-0.3,2.8c0,0.2,0,0.5,0.1,1c0,0.3,0,0.4,0,0.6c0,0.4-0.1,0.7-0.4,0.9c-0.2,0.2-0.6,0.3-1.1,0.3
			c-0.3,0-0.6-0.1-0.8-0.3c-0.2-0.2-0.3-0.5-0.4-0.8l0,0c0-0.1,0-0.2,0-0.7c-0.4,0.5-0.7,0.8-1.1,1.2c-0.7,0.6-1.5,0.9-2.3,0.9
			c-0.7,0-1.3-0.2-1.8-0.5c-0.5-0.3-0.8-0.8-1.1-1.3c-0.2-0.5-0.3-1.1-0.3-1.7c0-0.3,0-0.7,0.1-1.4c0.1-0.7,0.1-1.4,0.2-2.1
			c0.2-2.1,0.4-3.4,0.4-4c0-0.4,0.2-0.7,0.5-0.9C18.7,6,19,5.8,19.5,5.8c0.3,0,0.6,0.1,0.8,0.3c0.3,0.2,0.4,0.5,0.4,0.9
			c0,0.1,0,0.3-0.2,0.9c0,0.1-0.1,0.2-0.1,0.4c0,0.2-0.1,0.4-0.1,0.5l0,0c-0.2,1-0.3,2.1-0.5,3.4c-0.2,1.6-0.3,2.2-0.3,2.4
			c0,0.4,0.1,0.7,0.2,0.9c0,0.1,0.2,0.3,0.7,0.3c0.4,0,0.9-0.2,1.4-0.6c0.5-0.4,1-1.1,1.5-1.9c0.5-0.8,0.8-1.7,1.1-2.6
			c0.3-1.9,0.4-3.1,0.4-3.6l0,0c0-0.4,0.1-0.7,0.4-0.9c0.3-0.2,0.6-0.4,1.1-0.4c0.3,0,0.6,0.1,0.8,0.3C27.4,6.3,27.6,6.7,27.6,7z"/>
	</g>
	<g>
		<path fill="#FFFFFF" d="M37.8,16c0.1,0.2,0.2,0.4,0.2,0.7c0,0.4-0.1,0.7-0.3,1c-0.2,0.3-0.6,0.5-1,0.5c-0.6,0-1.2-0.3-1.9-0.9
			c-0.6-0.6-1.2-1.3-1.6-2.1c-0.3-0.5-0.5-1.1-0.7-1.6c-0.2,0.3-0.4,0.6-0.6,0.9c-0.3,0.4-0.5,0.8-0.6,1.1l0,0.6c0,0.3,0,0.5,0,0.7
			c0,0.4-0.2,0.6-0.5,0.9c-0.3,0.2-0.6,0.3-1,0.3c-0.4,0-0.7-0.1-0.9-0.4c-0.3-0.2-0.4-0.6-0.4-0.9c0-0.1,0-0.5,0.2-1.4
			c0.1-0.5,0.2-1,0.3-1.3c0.1-0.6,0.2-1.7,0.4-3.1l0.1-0.5C29.7,8,29.9,6.1,30,5.1c0.1-1.1,0.2-1.9,0.2-2.5l0,0c0-0.3,0-0.4,0-0.4
			c0-0.3,0.2-0.6,0.5-0.8C31,1.1,31.3,1,31.7,1c0.4,0,0.7,0.1,1,0.4C32.9,1.6,33,1.9,33,2.3c0,0.2,0,0.4-0.1,0.5
			c0,0.2-0.1,0.3-0.1,0.6c-0.1,0.3-0.2,0.6-0.2,0.8c-0.2,1.3-0.5,3.3-0.8,5.8c0,0.4-0.1,0.7-0.1,1c0.9-1.4,1.8-2.5,2.5-3.3
			c1.1-1.2,2-1.8,2.7-1.8c0.4,0,0.7,0.1,1,0.4c0.3,0.3,0.4,0.6,0.4,0.9c0,0.3-0.1,0.6-0.4,0.9c-0.2,0.2-0.5,0.4-1,0.7
			c-0.1,0-0.2,0.1-0.4,0.2c-0.2,0.1-0.4,0.3-0.5,0.4c-0.4,0.3-0.8,0.7-1,1c-0.3,0.3-0.5,0.6-0.8,1c0,0.6,0.2,1.2,0.5,1.7
			c0.3,0.6,0.7,1.1,1.2,1.5c0.5,0.4,0.9,0.7,1.3,1C37.5,15.7,37.7,15.8,37.8,16L37.8,16z"/>
	</g>
	<g>
		<path fill="#FFFFFF" d="M44.6,2.9c0,0.2-0.1,0.3-0.1,0.4c0,0.1,0,0.1-0.1,0.1l0,0l0,0c0,0,0,0.1-0.1,0.1l0,0c0,0,0,0.1,0,0.3
			l0,0.4c0,0.3-0.2,0.6-0.5,0.7c-0.2,0.1-0.5,0.2-0.9,0.2c-0.4,0-0.7-0.1-1-0.3c-0.2-0.2-0.3-0.5-0.3-1c0-0.1,0-0.3,0-0.4
			c0.1-0.5,0.2-0.9,0.5-1.2c0.3-0.3,0.7-0.5,1.1-0.5c0.4,0,0.7,0.1,1,0.3C44.5,2.2,44.7,2.5,44.6,2.9z"/>
		<path fill="#FFFFFF" d="M44,7.1c0,0.2,0,0.5-0.1,0.8c-0.1,0.3-0.1,0.7-0.2,1.1c0,0.1-0.1,0.4-0.2,0.9c-0.1,0.5-0.2,1-0.2,1.4
			c-0.1,1-0.2,2.1-0.4,3.1c-0.1,1-0.2,1.8-0.2,2.3c0,0.4-0.1,0.7-0.4,0.9c-0.3,0.2-0.6,0.4-1,0.4c-0.4,0-0.7-0.1-0.9-0.3
			c-0.2-0.2-0.4-0.4-0.4-0.9c0-0.2,0-0.4,0.1-0.8c0.1-0.4,0.1-0.6,0.1-0.6c0-0.2,0.1-0.5,0.2-1c0.1-0.6,0.2-1.3,0.3-2.1l0,0
			c0-0.2,0.1-0.4,0.1-0.6c0-0.2,0.1-0.5,0.1-0.7c0.2-1.4,0.3-2.7,0.3-3.8c0-0.4,0.1-0.7,0.4-1c0.3-0.2,0.6-0.4,1-0.4
			c0.4,0,0.7,0.1,1,0.3C43.8,6.4,44,6.7,44,7.1z"/>
	</g>
	<g>
		<path fill="#FFFFFF" d="M56.9,4.2c0,0.4-0.1,0.7-0.3,1c-0.2,0.3-0.6,0.4-1,0.4c-0.3,0-0.5-0.1-0.8-0.2c-0.2-0.1-0.4-0.3-0.7-0.5
			c-0.3-0.2-0.5-0.4-0.8-0.6c-0.2-0.1-0.5-0.3-0.8-0.4c-0.3-0.1-0.7-0.1-1.1-0.1c-0.7,0-1.3,0.2-1.7,0.5c-0.4,0.3-0.6,0.7-0.6,1.2
			c0,0.5,0.2,0.9,0.6,1.4c0.5,0.5,1.3,1,2.3,1.5c0.9,0.5,1.6,0.9,2.2,1.4c0.6,0.5,1,1,1.3,1.5c0.3,0.6,0.4,1.2,0.4,1.9
			c0,1-0.2,1.9-0.7,2.6c-0.5,0.8-1.1,1.4-1.9,1.8c-0.8,0.4-1.7,0.6-2.8,0.6c-0.9,0-1.7-0.1-2.5-0.4c-0.8-0.3-1.5-0.6-2-1
			c-0.5-0.5-0.8-1-0.8-1.5c0-0.4,0.1-0.7,0.4-0.9c0.2-0.3,0.5-0.4,0.9-0.4c0.3,0,0.5,0.1,0.7,0.2c0.2,0.1,0.4,0.3,0.7,0.5
			c0.3,0.2,0.6,0.4,0.8,0.6c0.2,0.1,0.6,0.3,0.9,0.4c0.4,0.1,0.8,0.2,1.4,0.2c0.5,0,0.9-0.1,1.2-0.3c0.4-0.2,0.6-0.5,0.8-0.9
			c0.2-0.4,0.3-0.7,0.3-1.2c0-0.4-0.1-0.7-0.3-1c-0.2-0.3-0.5-0.6-0.9-0.9c-0.4-0.3-1.1-0.7-1.8-1.1c-0.9-0.5-1.6-0.9-2.1-1.4
			c-0.6-0.5-1-1-1.3-1.5c-0.3-0.5-0.4-1.1-0.4-1.7c0-0.9,0.2-1.7,0.7-2.4c0.5-0.7,1.1-1.2,1.9-1.6c0.8-0.4,1.7-0.5,2.6-0.5
			c0.7,0,1.5,0.1,2.3,0.4c0.8,0.3,1.4,0.6,2,1C56.6,3.3,56.9,3.7,56.9,4.2z"/>
	</g>
	<g>
		<path fill="#FFFFFF" d="M71.5,7.4c0,1.5-0.2,3.1-0.7,4.7c-0.4,1.7-1.1,3.1-1.9,4.2c-0.9,1.2-1.9,1.8-3,1.8c-0.6,0-1.4-0.2-1.8-1.3
			c-0.2-0.4-0.3-0.8-0.4-1.3c-0.3,0.6-0.6,1.1-0.9,1.5c-0.6,0.8-1.3,1.1-2,1.1s-1.7-0.3-2.3-1.9c-0.4-1.1-0.6-2.6-0.6-4.4
			c0-1.4,0.1-2.8,0.3-4.3c0.1-0.5,0.2-0.9,0.4-1.2c0.2-0.3,0.5-0.6,1.2-0.6c0.5,0,0.8,0.2,0.9,0.4C60.9,6.5,61,6.8,61,7.2
			c0,0.1,0,0.3-0.1,0.8l0,0c-0.1,0.2-0.1,0.5-0.2,0.7l0,0c-0.1,0.7-0.2,1.4-0.3,2.1c-0.1,0.7-0.1,1.4-0.1,2c0,1,0.1,1.8,0.3,2.4
			c0.1,0.2,0.2,0.7,0.5,0.7c0.1,0,0.4-0.1,0.9-1.1c0.4-0.8,0.7-1.8,1-2.9c0.3-1.1,0.4-2,0.4-2.7c0-0.4,0.1-0.8,0.3-1.1
			c0.2-0.3,0.6-0.5,1.1-0.5c0.5,0,0.8,0.2,0.9,0.4C65.9,8.3,66,8.6,66,9c0,0.2,0,0.4-0.1,0.7c0,0.3-0.1,0.5-0.1,0.6l0,0
			c-0.1,0.6-0.1,1.1-0.2,1.5c0,0.5-0.1,0.9-0.1,1.4c0,0.9,0.1,1.6,0.2,2.2c0.1,0.4,0.2,0.6,0.4,0.6c0.3,0,0.6-0.3,1-0.8
			c0.4-0.6,0.8-1.5,1.1-2.6c0.3-1.1,0.5-2.3,0.5-3.7c0-0.1,0-0.3,0-0.5c0-0.2,0-0.3,0-0.4c0-0.2,0-0.5,0-0.7c0-0.4,0.1-0.7,0.4-1
			c0.3-0.3,0.6-0.5,1-0.5c0.6,0,0.9,0.3,1.1,0.5v0C71.4,6.6,71.5,7,71.5,7.4z"/>
	</g>
	<g>
		<path fill="#FFFFFF" d="M82.4,6.3c-0.3-0.2-0.6-0.4-0.9-0.4c-0.4,0-0.8,0.1-1,0.4c-0.1,0.1-0.2,0.2-0.3,0.3
			c-0.2-0.2-0.4-0.3-0.7-0.5C79.1,6,78.6,5.8,78,5.8c-1.1,0-2,0.4-2.9,1.1c-0.9,0.7-1.6,1.6-2.1,2.8c-0.5,1.1-0.8,2.4-0.8,3.7
			c0,1,0.1,1.8,0.4,2.5c0.3,0.7,0.7,1.3,1.2,1.7c0.5,0.4,1.2,0.6,2,0.6c0.7,0,1.4-0.3,2.1-0.8c0.3-0.3,0.6-0.6,0.9-0.9
			c0,0.4,0.1,0.8,0.3,1.1c0.2,0.3,0.5,0.6,1.1,0.6c0.4,0,0.7-0.1,0.9-0.4c0.2-0.2,0.4-0.6,0.4-0.9c0-0.2,0-0.4-0.1-0.7
			c0-0.3-0.1-0.5-0.1-0.7c0-0.4,0.1-1.4,0.3-2.8c0.2-1.5,0.4-2.6,0.6-3.4l0,0c0-0.1,0.1-0.3,0.2-0.8c0,0,0-0.1,0.1-0.4v0
			c0.1-0.3,0.1-0.5,0.1-0.7C82.7,6.8,82.6,6.5,82.4,6.3z M79.5,11.2l-0.1,0.4c-0.2,0.7-0.6,1.4-1,2.1c-0.2,0.3-0.4,0.6-0.6,0.9
			c-0.2,0.3-0.5,0.5-0.7,0.7c-0.4,0.4-0.8,0.5-1.1,0.5c-0.4,0-0.8-0.2-1-0.5c-0.2-0.4-0.4-1-0.4-1.8c0-0.9,0.2-1.8,0.5-2.7
			c0.3-0.8,0.8-1.5,1.3-2c0.5-0.5,1-0.7,1.6-0.7c0.2,0,0.4,0,0.6,0.1c0.2,0.1,0.4,0.3,0.6,0.5l0,0c0.1,0.1,0.3,0.2,0.5,0.3
			C79.7,9.6,79.6,10.4,79.5,11.2z"/>
	</g>
	<g>
		<path fill="#FFFFFF" d="M93.8,8.2c-0.1-0.3-0.3-0.7-0.5-0.9c-0.2-0.3-0.4-0.5-0.7-0.7c-0.5-0.4-1.2-0.6-2-0.6
			c-0.8,0-1.5,0.3-2.2,0.8c-0.3,0.3-0.7,0.6-1,1c0-0.1,0-0.1,0-0.2c0-0.4-0.1-0.7-0.2-1c-0.1-0.3-0.4-0.6-1-0.6
			c-0.4,0-0.7,0.1-1,0.4c-0.3,0.3-0.4,0.6-0.4,1c0,0.1,0,0.3,0.1,0.6c0,0.3,0.1,0.6,0.1,0.8c0,0.3-0.1,1.4-0.6,5.4
			c-0.3,2.6-0.6,4.5-0.8,5.8c-0.1,0.3-0.1,0.7-0.2,1.1l0,0c-0.1,0.5-0.1,0.7-0.1,0.8c0,0.4,0.1,0.7,0.4,0.9c0.3,0.2,0.6,0.3,0.9,0.3
			c0.4,0,0.7-0.1,1-0.3c0.3-0.2,0.4-0.5,0.5-0.8c0,0,0-0.1,0-0.5v0c0-0.5,0.1-1,0.1-1.7c0-0.5,0.1-1.3,0.2-2.4
			c0.2,0.2,0.4,0.3,0.6,0.4c0.5,0.3,1,0.4,1.6,0.4c1.2,0,2.3-0.4,3.2-1.2c0.9-0.8,1.5-1.7,1.9-2.9c0.4-1.2,0.6-2.4,0.6-3.6
			C94.2,9.6,94.1,8.8,93.8,8.2z M91.8,10.2c0,1.1-0.2,2.1-0.5,3C91,14,90.5,14.8,90,15.3c-0.5,0.5-1,0.7-1.6,0.7
			c-0.2,0-0.5-0.1-0.7-0.2c-0.2-0.1-0.5-0.4-0.7-0.7c-0.1-0.1-0.2-0.2-0.3-0.3c0,0-0.1,0-0.1-0.1l0.2-1.3l0.1-0.7
			c0.2-0.7,0.5-1.4,0.9-2.1c0.4-0.7,0.9-1.4,1.4-1.9c0.5-0.5,0.9-0.7,1.4-0.7c0.2,0,0.5,0.1,0.6,0.2c0.2,0.2,0.3,0.4,0.5,0.7
			C91.7,9.4,91.8,9.8,91.8,10.2z"/>
	</g>
</g>
</svg>
